<?xml version="1.0" encoding="UTF-8" standalone="no"?>
<svg
   xmlns:dc="http://purl.org/dc/elements/1.1/"
   xmlns:cc="http://creativecommons.org/ns#"
   xmlns:rdf="http://www.w3.org/1999/02/22-rdf-syntax-ns#"
   xmlns:svg="http://www.w3.org/2000/svg"
   xmlns="http://www.w3.org/2000/svg"
   viewBox="0 0 190.79066 152.47333"
   height="152.47333"
   width="190.79066"
   xml:space="preserve"
   id="svg2"
   version="1.1"><metadata
     id="metadata8"><rdf:RDF><cc:Work
         rdf:about=""><dc:format>image/svg+xml</dc:format><dc:type
           rdf:resource="http://purl.org/dc/dcmitype/StillImage" /></cc:Work></rdf:RDF></metadata><defs
     id="defs6"><clipPath
       id="clipPath18"
       clipPathUnits="userSpaceOnUse"><path
         id="path16"
         d="M 0,114.355 H 143.093 V 0 H 0 Z" /></clipPath></defs><g
     transform="matrix(1.3333333,0,0,-1.3333333,0,152.47333)"
     id="g10"><g
       id="g12"><g
         clip-path="url(#clipPath18)"
         id="g14"><g
           transform="translate(88.8983,35.8372)"
           id="g20"><path
             id="path22"
             style="fill:#656263;fill-opacity:1;fill-rule:nonzero;stroke:none"
             d="m 0,0 c -0.891,-1.631 -1.897,-3.214 -3.149,-4.511 -0.625,-0.645 -1.322,-1.203 -2.107,-1.546 -0.787,-0.352 -1.638,-0.466 -2.396,-0.164 -0.768,0.277 -1.399,0.953 -1.89,1.706 -0.492,0.765 -0.862,1.626 -1.172,2.509 -0.608,1.776 -0.985,3.647 -1.227,5.532 0.047,-1.902 0.248,-3.812 0.734,-5.681 0.24,-0.935 0.569,-1.857 1.047,-2.729 0.483,-0.855 1.143,-1.72 2.152,-2.178 0.495,-0.225 1.054,-0.336 1.596,-0.314 0.538,0.033 1.074,0.132 1.551,0.329 0.984,0.367 1.829,0.985 2.56,1.662 1.468,1.371 2.56,3.01 3.56,4.667 1.98,3.34 3.437,6.911 4.759,10.509 0.104,0.287 0.196,0.582 0.297,0.871 H 4.451 C 3.227,6.986 1.805,3.392 0,0" /></g><g
           transform="translate(99.6591,68.1418)"
           id="g24"><path
             id="path26"
             style="fill:#656263;fill-opacity:1;fill-rule:nonzero;stroke:none"
             d="m 0,0 c -0.043,1.951 -0.266,3.91 -0.719,5.828 -0.452,1.917 -1.184,3.791 -2.253,5.476 -1.066,1.676 -2.445,3.191 -4.131,4.262 -0.821,0.565 -1.733,0.977 -2.65,1.345 -0.93,0.336 -1.89,0.584 -2.862,0.724 -1.949,0.252 -3.942,0.117 -5.797,-0.483 -1.805,-0.691 -3.539,-1.386 -5.385,-1.897 0.937,0.169 1.869,0.375 2.793,0.614 0.92,0.23 1.844,0.562 2.734,0.791 0.907,0.209 1.831,0.321 2.755,0.34 0.926,0.013 1.847,-0.091 2.75,-0.26 3.629,-0.691 6.782,-3.038 8.559,-6.186 1.812,-3.153 2.444,-6.889 2.453,-10.573 -0.002,-0.447 -0.013,-0.894 -0.03,-1.341 H -0.01 C 0.001,-0.907 0.006,-0.454 0,0" /></g><g
           transform="translate(45.3339,68.4319)"
           id="g28"><path
             id="path30"
             style="fill:#656263;fill-opacity:1;fill-rule:nonzero;stroke:none"
             d="m 0,0 c -0.098,1.761 -0.086,3.524 0.136,5.24 0.237,1.705 0.632,3.42 1.493,4.74 0.434,0.666 1,1.211 1.643,1.667 0.676,0.411 1.422,0.731 2.23,0.923 1.622,0.372 3.383,0.355 5.129,0.197 3.51,-0.375 7.009,-1.3 10.514,-2.168 1.76,-0.423 3.519,-0.87 5.311,-1.191 1.784,-0.312 3.626,-0.573 5.426,-0.294 -1.813,-0.081 -3.577,0.349 -5.313,0.797 -1.737,0.466 -3.455,1.014 -5.175,1.566 -3.451,1.073 -6.916,2.205 -10.591,2.73 -1.834,0.244 -3.74,0.351 -5.66,-0.049 C 4.184,13.955 3.242,13.59 2.363,13.076 1.511,12.515 0.747,11.804 0.17,10.964 -0.393,10.125 -0.805,9.189 -1.068,8.268 -1.207,7.808 -1.337,7.347 -1.42,6.881 -1.528,6.417 -1.605,5.95 -1.662,5.482 -1.919,3.616 -1.946,1.748 -1.855,-0.099 -1.821,-0.618 -1.763,-1.132 -1.714,-1.65 H 0.117 C 0.07,-1.1 0.027,-0.549 0,0" /></g><g
           transform="translate(50.4086,41.9656)"
           id="g32"><path
             id="path34"
             style="fill:#656263;fill-opacity:1;fill-rule:nonzero;stroke:none"
             d="M 0,0 0.544,-1.254 C 0.749,-1.701 0.955,-2.089 1.17,-2.5 1.6,-3.307 2.047,-4.103 2.528,-4.88 3.5,-6.426 4.544,-7.94 5.806,-9.277 6.44,-9.938 7.117,-10.57 7.892,-11.07 c 0.771,-0.495 1.664,-0.864 2.578,-0.827 -0.912,0.06 -1.725,0.504 -2.417,1.053 -0.699,0.547 -1.304,1.21 -1.861,1.904 -1.11,1.395 -2.04,2.932 -2.877,4.511 -0.419,0.789 -0.82,1.59 -1.193,2.401 -0.183,0.4 -0.377,0.824 -0.527,1.209 L 1.129,0.442 C 0.642,1.8 0.171,3.163 -0.279,4.534 H -1.777 C -1.215,3.01 -0.635,1.495 0,0" /></g><g
           transform="translate(17.5165,53.3093)"
           id="g36"><path
             id="path38"
             style="fill:#656263;fill-opacity:1;fill-rule:nonzero;stroke:none"
             d="M 0,0 C -0.007,0.089 0,0.167 0.02,0.231 0.04,0.297 0.071,0.354 0.114,0.403 0.157,0.452 0.205,0.493 0.258,0.525 0.311,0.558 0.368,0.584 0.427,0.604 0.487,0.625 0.54,0.639 0.586,0.646 0.633,0.655 0.675,0.664 0.714,0.671 0.854,0.688 0.947,0.639 0.994,0.525 1.006,0.5 1.013,0.471 1.013,0.44 1.013,0.407 1.009,0.375 1.003,0.349 0.997,0.32 0.985,0.295 0.969,0.275 0.952,0.254 0.93,0.235 0.904,0.22 0.864,0.195 0.78,0.165 0.65,0.128 0.521,0.091 0.447,0.065 0.427,0.049 l 0.01,-0.061 c 0.02,-0.049 0.07,-0.081 0.149,-0.098 0.066,-0.008 0.146,-0.006 0.239,0.006 0.092,0.013 0.183,0.033 0.273,0.061 0.089,0.028 0.172,0.057 0.248,0.086 0.075,0.028 0.14,0.059 0.194,0.092 0.662,0.349 1.343,0.939 2.042,1.769 0.697,0.83 1.262,1.7 1.693,2.611 0.311,0.659 0.51,1.256 0.596,1.793 C 5.99,7 5.937,7.558 5.711,7.98 5.513,8.338 5.207,8.578 4.793,8.7 4.379,8.822 3.941,8.824 3.482,8.707 3.021,8.588 2.608,8.382 2.245,8.091 2.079,7.952 1.971,7.829 1.917,7.725 1.884,7.659 1.875,7.597 1.887,7.541 1.9,7.484 1.934,7.424 1.987,7.364 2.039,7.303 2.119,7.236 2.225,7.163 l 0.04,-0.062 c 0.04,-0.089 0.04,-0.178 0,-0.268 C 2.225,6.744 2.161,6.697 2.071,6.692 1.981,6.688 1.891,6.723 1.798,6.796 1.652,6.91 1.54,7.065 1.46,7.26 1.388,7.057 1.308,6.742 1.221,6.314 1.136,5.889 1.046,5.358 0.954,4.729 0.861,4.098 0.771,3.4 0.686,2.635 0.659,2.44 0.637,2.233 0.621,2.014 0.604,1.794 0.591,1.611 0.581,1.464 0.57,1.318 0.561,1.186 0.551,1.068 0.542,0.95 0.536,0.878 0.536,0.855 0.517,0.732 0.47,0.65 0.398,0.61 0.364,0.587 0.332,0.578 0.298,0.587 0.265,0.594 0.233,0.61 0.204,0.634 0.174,0.66 0.149,0.696 0.129,0.745 0.115,0.786 0.105,0.855 0.099,0.952 0.093,1.05 0.094,1.179 0.104,1.343 0.114,1.506 0.126,1.664 0.139,1.817 0.152,1.973 0.174,2.182 0.204,2.446 0.233,2.71 0.259,2.933 0.283,3.111 0.306,3.29 0.338,3.543 0.376,3.868 0.437,4.315 0.521,4.86 0.631,5.503 0.74,6.146 0.856,6.742 0.979,7.291 1.101,7.84 1.196,8.143 1.261,8.2 1.347,8.281 1.434,8.249 1.52,8.103 1.838,8.428 2.229,8.702 2.692,8.925 3.155,9.15 3.651,9.274 4.177,9.298 4.704,9.323 5.175,9.159 5.593,8.811 5.95,8.51 6.179,8.099 6.278,7.578 6.377,7.057 6.344,6.463 6.179,5.796 6.113,5.552 6.031,5.298 5.936,5.034 5.839,4.77 5.729,4.502 5.603,4.233 5.159,3.307 4.589,2.425 3.894,1.586 3.198,0.749 2.506,0.13 1.817,-0.269 1.566,-0.415 1.304,-0.513 1.033,-0.561 0.94,-0.585 0.853,-0.598 0.77,-0.598 0.687,-0.598 0.603,-0.59 0.517,-0.573 0.212,-0.508 0.04,-0.317 0,0" /></g><g
           transform="translate(17.5165,53.3093)"
           id="g40"><path
             id="path42"
             style="fill:#656263;fill-opacity:1;fill-rule:nonzero;stroke:none"
             d="M 0,0 C -0.007,0.089 0,0.167 0.02,0.231 0.04,0.297 0.071,0.354 0.114,0.403 0.157,0.452 0.205,0.493 0.258,0.525 0.311,0.558 0.368,0.584 0.427,0.604 0.487,0.625 0.54,0.639 0.586,0.646 0.633,0.655 0.675,0.664 0.714,0.671 0.854,0.688 0.947,0.639 0.994,0.525 1.006,0.5 1.013,0.471 1.013,0.44 1.013,0.407 1.009,0.375 1.003,0.349 0.997,0.32 0.985,0.295 0.969,0.275 0.952,0.254 0.93,0.235 0.904,0.22 0.864,0.195 0.78,0.165 0.65,0.128 0.521,0.091 0.447,0.065 0.427,0.049 l 0.01,-0.061 c 0.02,-0.049 0.07,-0.081 0.149,-0.098 0.066,-0.008 0.146,-0.006 0.239,0.006 0.092,0.013 0.183,0.033 0.273,0.061 0.089,0.028 0.172,0.057 0.248,0.086 0.075,0.028 0.14,0.059 0.194,0.092 0.662,0.349 1.343,0.939 2.042,1.769 0.697,0.83 1.262,1.7 1.693,2.611 0.311,0.659 0.51,1.256 0.596,1.793 C 5.99,7 5.937,7.558 5.711,7.98 5.513,8.338 5.207,8.578 4.793,8.7 4.379,8.822 3.941,8.824 3.482,8.707 3.021,8.588 2.608,8.382 2.245,8.091 2.079,7.952 1.971,7.829 1.917,7.725 1.884,7.659 1.875,7.597 1.887,7.541 1.9,7.484 1.934,7.424 1.987,7.364 2.039,7.303 2.119,7.236 2.225,7.163 l 0.04,-0.062 c 0.04,-0.089 0.04,-0.178 0,-0.268 C 2.225,6.744 2.161,6.697 2.071,6.692 1.981,6.688 1.891,6.723 1.798,6.796 1.652,6.91 1.54,7.065 1.46,7.26 1.388,7.057 1.308,6.742 1.221,6.314 1.136,5.889 1.046,5.358 0.954,4.729 0.861,4.098 0.771,3.4 0.686,2.635 0.659,2.44 0.637,2.233 0.621,2.014 0.604,1.794 0.591,1.611 0.581,1.464 0.57,1.318 0.561,1.186 0.551,1.068 0.542,0.95 0.536,0.878 0.536,0.855 0.517,0.732 0.47,0.65 0.398,0.61 0.364,0.587 0.332,0.578 0.298,0.587 0.265,0.594 0.233,0.61 0.204,0.634 0.174,0.66 0.149,0.696 0.129,0.745 0.115,0.786 0.105,0.855 0.099,0.952 0.093,1.05 0.094,1.179 0.104,1.343 0.114,1.506 0.126,1.664 0.139,1.817 0.152,1.973 0.174,2.182 0.204,2.446 0.233,2.71 0.259,2.933 0.283,3.111 0.306,3.29 0.338,3.543 0.376,3.868 0.437,4.315 0.521,4.86 0.631,5.503 0.74,6.146 0.856,6.742 0.979,7.291 1.101,7.84 1.196,8.143 1.261,8.2 1.347,8.281 1.434,8.249 1.52,8.103 1.838,8.428 2.229,8.702 2.692,8.925 3.155,9.15 3.651,9.274 4.177,9.298 4.704,9.323 5.175,9.159 5.593,8.811 5.95,8.51 6.179,8.099 6.278,7.578 6.377,7.057 6.344,6.463 6.179,5.796 6.113,5.552 6.031,5.298 5.936,5.034 5.839,4.77 5.729,4.502 5.603,4.233 5.159,3.307 4.589,2.425 3.894,1.586 3.198,0.749 2.506,0.13 1.817,-0.269 1.566,-0.415 1.304,-0.513 1.033,-0.561 0.94,-0.585 0.853,-0.598 0.77,-0.598 0.687,-0.598 0.603,-0.59 0.517,-0.573 0.212,-0.508 0.04,-0.317 0,0" /></g><g
           transform="translate(26.6357,55.2742)"
           id="g44"><path
             id="path46"
             style="fill:#656263;fill-opacity:1;fill-rule:nonzero;stroke:none"
             d="m 0,0 c -0.06,0.065 -0.114,0.134 -0.164,0.207 -0.05,0.074 -0.088,0.15 -0.114,0.232 -0.026,0.082 -0.05,0.169 -0.07,0.262 -0.02,0.094 -0.033,0.187 -0.04,0.281 -0.006,0.094 -0.009,0.19 -0.009,0.288 v 0.292 c 0.006,0.082 0.019,0.26 0.035,0.537 0.016,0.276 0.022,0.452 0.019,0.525 -0.003,0.073 -0.011,0.24 -0.025,0.5 -0.053,0.407 -0.201,0.679 -0.446,0.817 L -0.954,3.99 C -0.86,3.884 -0.786,3.79 -0.726,3.709 -0.686,3.645 -0.654,3.58 -0.631,3.514 -0.608,3.448 -0.596,3.388 -0.596,3.331 -0.596,3.274 -0.603,3.216 -0.616,3.16 -0.629,3.104 -0.652,3.048 -0.686,2.996 -0.719,2.942 -0.762,2.892 -0.814,2.843 -0.987,2.672 -1.158,2.528 -1.326,2.41 -1.495,2.292 -1.613,2.218 -1.679,2.19 -1.745,2.162 -1.802,2.143 -1.848,2.136 -1.895,2.119 -1.934,2.121 -1.967,2.141 -2,2.162 -2.026,2.191 -2.046,2.232 c -0.027,0.065 -0.027,0.131 0,0.197 0.026,0.064 0.069,0.113 0.129,0.145 l 0.009,0.013 c 0.113,0.04 0.287,0.15 0.522,0.328 0.236,0.18 0.363,0.297 0.382,0.356 0,0.023 -0.014,0.055 -0.044,0.097 -0.03,0.04 -0.086,0.109 -0.169,0.207 -0.082,0.098 -0.138,0.162 -0.163,0.196 -0.206,0.252 -0.245,0.45 -0.12,0.597 0.172,0.211 0.45,0.215 0.834,0.012 C -0.606,4.356 -0.55,4.324 -0.497,4.283 -0.377,4.21 -0.28,4.106 -0.204,3.972 -0.128,3.836 -0.071,3.708 -0.036,3.582 0.002,3.455 0.027,3.288 0.04,3.081 0.053,2.873 0.058,2.71 0.055,2.593 0.051,2.475 0.041,2.295 0.025,2.056 0.008,1.816 0,1.655 0,1.574 -0.027,0.947 0.05,0.565 0.229,0.426 0.341,0.329 0.52,0.276 0.765,0.268 1.009,0.259 1.286,0.29 1.594,0.359 1.902,0.428 2.247,0.522 2.627,0.641 3.008,0.759 3.386,0.891 3.761,1.037 4.134,1.184 4.516,1.338 4.907,1.501 5.298,1.663 5.651,1.814 5.965,1.952 6.279,2.09 6.58,2.221 6.864,2.342 7.149,2.463 7.357,2.545 7.49,2.587 L 7.5,2.6 C 7.52,2.606 7.543,2.609 7.57,2.604 7.596,2.6 7.621,2.595 7.644,2.587 7.667,2.578 7.687,2.564 7.703,2.544 7.72,2.523 7.735,2.501 7.749,2.477 7.755,2.444 7.758,2.412 7.758,2.379 7.758,2.346 7.752,2.316 7.738,2.288 7.726,2.259 7.708,2.232 7.689,2.209 7.668,2.185 7.646,2.167 7.62,2.159 7.48,2.111 7.235,2.007 6.884,1.85 6.533,1.689 6.162,1.522 5.771,1.347 5.381,1.173 4.949,0.984 4.475,0.781 4.002,0.577 3.54,0.4 3.089,0.25 2.639,0.099 2.209,-0.024 1.798,-0.122 1.388,-0.221 1.023,-0.26 0.705,-0.244 0.387,-0.228 0.152,-0.147 0,0" /></g><g
           transform="translate(26.6357,55.2742)"
           id="g48"><path
             id="path50"
             style="fill:#656263;fill-opacity:1;fill-rule:nonzero;stroke:none"
             d="m 0,0 c -0.06,0.065 -0.114,0.134 -0.164,0.207 -0.05,0.074 -0.088,0.15 -0.114,0.232 -0.026,0.082 -0.05,0.169 -0.07,0.262 -0.02,0.094 -0.033,0.187 -0.04,0.281 -0.006,0.094 -0.009,0.19 -0.009,0.288 v 0.292 c 0.006,0.082 0.019,0.26 0.035,0.537 0.016,0.276 0.022,0.452 0.019,0.525 -0.003,0.073 -0.011,0.24 -0.025,0.5 -0.053,0.407 -0.201,0.679 -0.446,0.817 L -0.954,3.99 C -0.86,3.884 -0.786,3.79 -0.726,3.709 -0.686,3.645 -0.654,3.58 -0.631,3.514 -0.608,3.448 -0.596,3.388 -0.596,3.331 -0.596,3.274 -0.603,3.216 -0.616,3.16 -0.629,3.104 -0.652,3.048 -0.686,2.996 -0.719,2.942 -0.762,2.892 -0.814,2.843 -0.987,2.672 -1.158,2.528 -1.326,2.41 -1.495,2.292 -1.613,2.218 -1.679,2.19 -1.745,2.162 -1.802,2.143 -1.848,2.136 -1.895,2.119 -1.934,2.121 -1.967,2.141 -2,2.162 -2.026,2.191 -2.046,2.232 c -0.027,0.065 -0.027,0.131 0,0.197 0.026,0.064 0.069,0.113 0.129,0.145 l 0.009,0.013 c 0.113,0.04 0.287,0.15 0.522,0.328 0.236,0.18 0.363,0.297 0.382,0.356 0,0.023 -0.014,0.055 -0.044,0.097 -0.03,0.04 -0.086,0.109 -0.169,0.207 -0.082,0.098 -0.138,0.162 -0.163,0.196 -0.206,0.252 -0.245,0.45 -0.12,0.597 0.172,0.211 0.45,0.215 0.834,0.012 C -0.606,4.356 -0.55,4.324 -0.497,4.283 -0.377,4.21 -0.28,4.106 -0.204,3.972 -0.128,3.836 -0.071,3.708 -0.036,3.582 0.002,3.455 0.027,3.288 0.04,3.081 0.053,2.873 0.058,2.71 0.055,2.593 0.051,2.475 0.041,2.295 0.025,2.056 0.008,1.816 0,1.655 0,1.574 -0.027,0.947 0.05,0.565 0.229,0.426 0.341,0.329 0.52,0.276 0.765,0.268 1.009,0.259 1.286,0.29 1.594,0.359 1.902,0.428 2.247,0.522 2.627,0.641 3.008,0.759 3.386,0.891 3.761,1.037 4.134,1.184 4.516,1.338 4.907,1.501 5.298,1.663 5.651,1.814 5.965,1.952 6.279,2.09 6.58,2.221 6.864,2.342 7.149,2.463 7.357,2.545 7.49,2.587 L 7.5,2.6 C 7.52,2.606 7.543,2.609 7.57,2.604 7.596,2.6 7.621,2.595 7.644,2.587 7.667,2.578 7.687,2.564 7.703,2.544 7.72,2.523 7.735,2.501 7.749,2.477 7.755,2.444 7.758,2.412 7.758,2.379 7.758,2.346 7.752,2.316 7.738,2.288 7.726,2.259 7.708,2.232 7.689,2.209 7.668,2.185 7.646,2.167 7.62,2.159 7.48,2.111 7.235,2.007 6.884,1.85 6.533,1.689 6.162,1.522 5.771,1.347 5.381,1.173 4.949,0.984 4.475,0.781 4.002,0.577 3.54,0.4 3.089,0.25 2.639,0.099 2.209,-0.024 1.798,-0.122 1.388,-0.221 1.023,-0.26 0.705,-0.244 0.387,-0.228 0.152,-0.147 0,0" /></g><g
           transform="translate(34.9306,57.2996)"
           id="g52"><path
             id="path54"
             style="fill:#656263;fill-opacity:1;fill-rule:nonzero;stroke:none"
             d="m 0,0 h -0.01 c -0.06,0.033 -0.091,0.091 -0.094,0.177 -0.004,0.085 0.004,0.156 0.024,0.214 0.014,0.088 0.014,0.15 0,0.182 C -0.106,0.582 -0.154,0.562 -0.224,0.512 -0.293,0.463 -0.387,0.378 -0.501,0.256 c -0.117,-0.122 -0.241,-0.268 -0.374,-0.44 -0.138,-0.178 -0.254,-0.348 -0.347,-0.512 -0.093,-0.162 -0.154,-0.288 -0.184,-0.378 -0.03,-0.089 -0.041,-0.15 -0.034,-0.182 0.053,0 0.144,0.04 0.273,0.121 0.128,0.082 0.286,0.207 0.472,0.378 0.184,0.171 0.364,0.358 0.536,0.562 0.02,0.016 0.048,0.046 0.085,0.091 C -0.039,-0.059 -0.013,-0.024 0,0 M 0.357,0.366 C 0.423,0.415 0.48,0.43 0.526,0.415 0.646,0.366 0.655,0.179 0.556,-0.147 l -0.01,-0.061 c -0.052,-0.309 -0.04,-0.569 0.04,-0.78 0.119,-0.318 0.402,-0.515 0.85,-0.592 0.446,-0.077 0.963,-0.057 1.549,0.061 0.586,0.118 1.215,0.295 1.888,0.531 0.672,0.235 1.299,0.486 1.882,0.75 0.583,0.264 1.093,0.527 1.53,0.787 C 8.317,0.565 8.354,0.575 8.394,0.58 8.434,0.584 8.468,0.573 8.499,0.549 8.528,0.525 8.55,0.493 8.563,0.452 8.583,0.378 8.576,0.311 8.543,0.251 8.51,0.188 8.464,0.147 8.404,0.122 7.57,-0.333 6.613,-0.783 5.533,-1.226 4.454,-1.67 3.471,-1.949 2.583,-2.063 c -1.57,-0.202 -2.404,0.277 -2.503,1.44 -0.126,-0.13 -0.256,-0.26 -0.388,-0.389 -0.648,-0.651 -1.112,-0.879 -1.391,-0.684 -0.032,0.015 -0.059,0.04 -0.079,0.073 -0.298,0.382 -0.034,1.054 0.795,2.014 0.112,0.129 0.21,0.238 0.293,0.322 0.082,0.086 0.164,0.159 0.243,0.221 0.079,0.061 0.152,0.102 0.218,0.121 0.066,0.021 0.131,0.024 0.193,0.013 C 0.028,1.055 0.089,1.021 0.148,0.964 0.234,0.9 0.296,0.811 0.333,0.701 0.369,0.592 0.377,0.479 0.357,0.366" /></g><g
           transform="translate(34.9306,57.2996)"
           id="g56"><path
             id="path58"
             style="fill:#656263;fill-opacity:1;fill-rule:nonzero;stroke:none"
             d="m 0,0 h -0.01 c -0.06,0.033 -0.091,0.091 -0.094,0.177 -0.004,0.085 0.004,0.156 0.024,0.214 0.014,0.088 0.014,0.15 0,0.182 C -0.106,0.582 -0.154,0.562 -0.224,0.512 -0.293,0.463 -0.387,0.378 -0.501,0.256 c -0.117,-0.122 -0.241,-0.268 -0.374,-0.44 -0.138,-0.178 -0.254,-0.348 -0.347,-0.512 -0.093,-0.162 -0.154,-0.288 -0.184,-0.378 -0.03,-0.089 -0.041,-0.15 -0.034,-0.182 0.053,0 0.144,0.04 0.273,0.121 0.128,0.082 0.286,0.207 0.472,0.378 0.184,0.171 0.364,0.358 0.536,0.562 0.02,0.016 0.048,0.046 0.085,0.091 C -0.039,-0.059 -0.013,-0.024 0,0 M 0.357,0.366 C 0.423,0.415 0.48,0.43 0.526,0.415 0.646,0.366 0.655,0.179 0.556,-0.147 l -0.01,-0.061 c -0.052,-0.309 -0.04,-0.569 0.04,-0.78 0.119,-0.318 0.402,-0.515 0.85,-0.592 0.446,-0.077 0.963,-0.057 1.549,0.061 0.586,0.118 1.215,0.295 1.888,0.531 0.672,0.235 1.299,0.486 1.882,0.75 0.583,0.264 1.093,0.527 1.53,0.787 C 8.317,0.565 8.354,0.575 8.394,0.58 8.434,0.584 8.468,0.573 8.499,0.549 8.528,0.525 8.55,0.493 8.563,0.452 8.583,0.378 8.576,0.311 8.543,0.251 8.51,0.188 8.464,0.147 8.404,0.122 7.57,-0.333 6.613,-0.783 5.533,-1.226 4.454,-1.67 3.471,-1.949 2.583,-2.063 c -1.57,-0.202 -2.404,0.277 -2.503,1.44 -0.126,-0.13 -0.256,-0.26 -0.388,-0.389 -0.648,-0.651 -1.112,-0.879 -1.391,-0.684 -0.032,0.015 -0.059,0.04 -0.079,0.073 -0.298,0.382 -0.034,1.054 0.795,2.014 0.112,0.129 0.21,0.238 0.293,0.322 0.082,0.086 0.164,0.159 0.243,0.221 0.079,0.061 0.152,0.102 0.218,0.121 0.066,0.021 0.131,0.024 0.193,0.013 C 0.028,1.055 0.089,1.021 0.148,0.964 0.234,0.9 0.296,0.811 0.333,0.701 0.369,0.592 0.377,0.479 0.357,0.366" /></g><g
           transform="translate(44.2387,55.1155)"
           id="g60"><path
             id="path62"
             style="fill:#656263;fill-opacity:1;fill-rule:nonzero;stroke:none"
             d="M 0,0 C -0.086,0.13 -0.104,0.248 -0.05,0.354 -0.003,0.444 0.121,0.495 0.323,0.506 0.525,0.519 0.649,0.476 0.695,0.378 0.754,0.256 0.731,0.143 0.625,0.037 0.545,-0.053 0.443,-0.106 0.318,-0.122 0.191,-0.138 0.085,-0.098 0,0" /></g><g
           transform="translate(44.2387,55.1155)"
           id="g64"><path
             id="path66"
             style="fill:#656263;fill-opacity:1;fill-rule:nonzero;stroke:none"
             d="M 0,0 C -0.086,0.13 -0.104,0.248 -0.05,0.354 -0.003,0.444 0.121,0.495 0.323,0.506 0.525,0.519 0.649,0.476 0.695,0.378 0.754,0.256 0.731,0.143 0.625,0.037 0.545,-0.053 0.443,-0.106 0.318,-0.122 0.191,-0.138 0.085,-0.098 0,0" /></g><g
           transform="translate(48.7294,51.8499)"
           id="g68"><path
             id="path70"
             style="fill:#656263;fill-opacity:1;fill-rule:nonzero;stroke:none"
             d="m 0,0 c -0.189,-0.163 -0.329,-0.163 -0.42,0 -0.036,0.085 -0.038,0.169 -0.01,0.252 0.028,0.081 0.08,0.147 0.157,0.2 C 1.428,1.956 2.524,3.116 3.013,3.933 3.208,4.26 3.269,4.459 3.192,4.527 3.101,4.612 2.845,4.677 2.425,4.72 1.746,4.789 1.169,4.914 0.693,5.094 0.126,5.301 -0.22,5.551 -0.347,5.842 -0.641,6.53 -0.414,7.356 0.336,8.319 0.35,8.335 0.366,8.355 0.383,8.377 0.401,8.398 0.417,8.417 0.43,8.435 0.444,8.452 0.462,8.474 0.483,8.5 0.987,9.109 1.6,9.617 2.32,10.021 2.909,10.356 3.3,10.463 3.496,10.343 3.539,10.317 3.569,10.287 3.591,10.252 3.843,9.927 3.604,9.367 2.876,8.577 2.744,8.405 2.628,8.375 2.53,8.486 2.432,8.58 2.446,8.718 2.572,8.898 2.6,8.933 2.633,8.977 2.672,9.028 2.71,9.08 2.744,9.126 2.771,9.17 2.799,9.212 2.833,9.258 2.872,9.305 2.91,9.353 2.943,9.397 2.971,9.441 2.999,9.484 3.026,9.524 3.05,9.564 3.074,9.601 3.097,9.636 3.118,9.666 3.139,9.696 3.155,9.724 3.166,9.75 3.176,9.776 3.181,9.793 3.181,9.802 3.167,9.854 2.996,9.802 2.667,9.647 2.646,9.638 2.622,9.628 2.594,9.615 2.565,9.601 2.537,9.586 2.509,9.569 2.32,9.458 2.102,9.307 1.853,9.119 1.605,8.929 1.368,8.727 1.145,8.512 0.92,8.297 0.746,8.107 0.619,7.944 0.592,7.91 0.567,7.875 0.545,7.841 0.462,7.721 0.389,7.605 0.325,7.493 0.207,7.278 0.117,7.083 0.058,6.906 -0.002,6.73 -0.021,6.545 0,6.352 0.021,6.159 0.105,6.001 0.251,5.881 0.427,5.744 0.605,5.64 0.787,5.572 1.025,5.477 1.484,5.382 2.163,5.288 2.758,5.202 3.145,5.122 3.324,5.049 3.5,4.976 3.626,4.85 3.696,4.669 3.786,4.411 3.64,3.993 3.254,3.417 2.87,2.842 2.381,2.249 1.791,1.638 1.198,1.027 0.602,0.482 0,0" /></g><g
           transform="translate(48.7294,51.8499)"
           id="g72"><path
             id="path74"
             style="fill:#656263;fill-opacity:1;fill-rule:nonzero;stroke:none"
             d="m 0,0 c -0.189,-0.163 -0.329,-0.163 -0.42,0 -0.036,0.085 -0.038,0.169 -0.01,0.252 0.028,0.081 0.08,0.147 0.157,0.2 C 1.428,1.956 2.524,3.116 3.013,3.933 3.208,4.26 3.269,4.459 3.192,4.527 3.101,4.612 2.845,4.677 2.425,4.72 1.746,4.789 1.169,4.914 0.693,5.094 0.126,5.301 -0.22,5.551 -0.347,5.842 -0.641,6.53 -0.414,7.356 0.336,8.319 0.35,8.335 0.366,8.355 0.383,8.377 0.401,8.398 0.417,8.417 0.43,8.435 0.444,8.452 0.462,8.474 0.483,8.5 0.987,9.109 1.6,9.617 2.32,10.021 2.909,10.356 3.3,10.463 3.496,10.343 3.539,10.317 3.569,10.287 3.591,10.252 3.843,9.927 3.604,9.367 2.876,8.577 2.744,8.405 2.628,8.375 2.53,8.486 2.432,8.58 2.446,8.718 2.572,8.898 2.6,8.933 2.633,8.977 2.672,9.028 2.71,9.08 2.744,9.126 2.771,9.17 2.799,9.212 2.833,9.258 2.872,9.305 2.91,9.353 2.943,9.397 2.971,9.441 2.999,9.484 3.026,9.524 3.05,9.564 3.074,9.601 3.097,9.636 3.118,9.666 3.139,9.696 3.155,9.724 3.166,9.75 3.176,9.776 3.181,9.793 3.181,9.802 3.167,9.854 2.996,9.802 2.667,9.647 2.646,9.638 2.622,9.628 2.594,9.615 2.565,9.601 2.537,9.586 2.509,9.569 2.32,9.458 2.102,9.307 1.853,9.119 1.605,8.929 1.368,8.727 1.145,8.512 0.92,8.297 0.746,8.107 0.619,7.944 0.592,7.91 0.567,7.875 0.545,7.841 0.462,7.721 0.389,7.605 0.325,7.493 0.207,7.278 0.117,7.083 0.058,6.906 -0.002,6.73 -0.021,6.545 0,6.352 0.021,6.159 0.105,6.001 0.251,5.881 0.427,5.744 0.605,5.64 0.787,5.572 1.025,5.477 1.484,5.382 2.163,5.288 2.758,5.202 3.145,5.122 3.324,5.049 3.5,4.976 3.626,4.85 3.696,4.669 3.786,4.411 3.64,3.993 3.254,3.417 2.87,2.842 2.381,2.249 1.791,1.638 1.198,1.027 0.602,0.482 0,0" /></g><g
           transform="translate(54.4994,56.3894)"
           id="g76"><path
             id="path78"
             style="fill:#656263;fill-opacity:1;fill-rule:nonzero;stroke:none"
             d="m 0,0 h -0.007 c -0.043,0.03 -0.065,0.086 -0.068,0.167 -0.002,0.081 0.004,0.148 0.018,0.202 0.01,0.085 0.01,0.143 0,0.174 C -0.076,0.55 -0.109,0.532 -0.16,0.486 -0.209,0.439 -0.276,0.358 -0.358,0.242 -0.441,0.127 -0.53,-0.012 -0.625,-0.173 c -0.099,-0.17 -0.182,-0.332 -0.248,-0.486 -0.066,-0.153 -0.11,-0.274 -0.131,-0.359 -0.022,-0.084 -0.03,-0.142 -0.025,-0.173 0.038,0 0.103,0.04 0.195,0.117 0.092,0.076 0.205,0.195 0.337,0.358 0.133,0.161 0.26,0.339 0.384,0.53 0.014,0.016 0.033,0.045 0.06,0.086 C -0.027,-0.057 -0.01,-0.023 0,0 M 0.255,0.346 C 0.303,0.394 0.344,0.409 0.376,0.394 0.462,0.346 0.469,0.169 0.398,-0.138 L 0.39,-0.196 c -0.037,-0.294 -0.028,-0.54 0.029,-0.74 0.085,-0.301 0.288,-0.488 0.607,-0.562 0.32,-0.072 0.689,-0.053 1.108,0.059 0.419,0.112 0.868,0.279 1.349,0.503 0.48,0.222 0.929,0.46 1.345,0.71 C 5.245,0.023 5.609,0.273 5.921,0.52 5.945,0.536 5.971,0.544 6,0.548 6.028,0.552 6.053,0.543 6.074,0.52 6.096,0.497 6.111,0.466 6.121,0.427 6.135,0.358 6.13,0.294 6.106,0.238 6.083,0.18 6.049,0.139 6.007,0.114 5.41,-0.316 4.726,-0.742 3.955,-1.162 3.183,-1.582 2.48,-1.846 1.846,-1.953 0.724,-2.146 0.128,-1.691 0.057,-0.589 c -0.091,-0.125 -0.182,-0.247 -0.277,-0.37 -0.464,-0.617 -0.795,-0.833 -0.994,-0.647 -0.023,0.016 -0.042,0.038 -0.057,0.069 -0.212,0.362 -0.023,0.996 0.568,1.906 0.081,0.124 0.151,0.225 0.209,0.306 0.06,0.082 0.119,0.151 0.174,0.209 0.058,0.057 0.11,0.095 0.157,0.116 0.048,0.019 0.094,0.022 0.138,0.011 C 0.02,1 0.064,0.966 0.107,0.912 0.168,0.851 0.212,0.769 0.238,0.665 0.264,0.56 0.27,0.454 0.255,0.346" /></g><g
           transform="translate(54.4994,56.3894)"
           id="g80"><path
             id="path82"
             style="fill:#656263;fill-opacity:1;fill-rule:nonzero;stroke:none"
             d="m 0,0 h -0.007 c -0.043,0.03 -0.065,0.086 -0.068,0.167 -0.002,0.081 0.004,0.148 0.018,0.202 0.01,0.085 0.01,0.143 0,0.174 C -0.076,0.55 -0.109,0.532 -0.16,0.486 -0.209,0.439 -0.276,0.358 -0.358,0.242 -0.441,0.127 -0.53,-0.012 -0.625,-0.173 c -0.099,-0.17 -0.182,-0.332 -0.248,-0.486 -0.066,-0.153 -0.11,-0.274 -0.131,-0.359 -0.022,-0.084 -0.03,-0.142 -0.025,-0.173 0.038,0 0.103,0.04 0.195,0.117 0.092,0.076 0.205,0.195 0.337,0.358 0.133,0.161 0.26,0.339 0.384,0.53 0.014,0.016 0.033,0.045 0.06,0.086 C -0.027,-0.057 -0.01,-0.023 0,0 M 0.255,0.346 C 0.303,0.394 0.344,0.409 0.376,0.394 0.462,0.346 0.469,0.169 0.398,-0.138 L 0.39,-0.196 c -0.037,-0.294 -0.028,-0.54 0.029,-0.74 0.085,-0.301 0.288,-0.488 0.607,-0.562 0.32,-0.072 0.689,-0.053 1.108,0.059 0.419,0.112 0.868,0.279 1.349,0.503 0.48,0.222 0.929,0.46 1.345,0.71 C 5.245,0.023 5.609,0.273 5.921,0.52 5.945,0.536 5.971,0.544 6,0.548 6.028,0.552 6.053,0.543 6.074,0.52 6.096,0.497 6.111,0.466 6.121,0.427 6.135,0.358 6.13,0.294 6.106,0.238 6.083,0.18 6.049,0.139 6.007,0.114 5.41,-0.316 4.726,-0.742 3.955,-1.162 3.183,-1.582 2.48,-1.846 1.846,-1.953 0.724,-2.146 0.128,-1.691 0.057,-0.589 c -0.091,-0.125 -0.182,-0.247 -0.277,-0.37 -0.464,-0.617 -0.795,-0.833 -0.994,-0.647 -0.023,0.016 -0.042,0.038 -0.057,0.069 -0.212,0.362 -0.023,0.996 0.568,1.906 0.081,0.124 0.151,0.225 0.209,0.306 0.06,0.082 0.119,0.151 0.174,0.209 0.058,0.057 0.11,0.095 0.157,0.116 0.048,0.019 0.094,0.022 0.138,0.011 C 0.02,1 0.064,0.966 0.107,0.912 0.168,0.851 0.212,0.769 0.238,0.665 0.264,0.56 0.27,0.454 0.255,0.346" /></g><g
           transform="translate(61.5927,56.3088)"
           id="g84"><path
             id="path86"
             style="fill:#656263;fill-opacity:1;fill-rule:nonzero;stroke:none"
             d="M 0,0 C 0,0.114 -0.005,0.207 -0.014,0.277 -0.024,0.346 -0.036,0.392 -0.05,0.415 -0.098,0.499 -0.221,0.404 -0.419,0.126 -0.508,0.003 -0.644,-0.205 -0.824,-0.497 -0.861,-0.559 -0.907,-0.632 -0.962,-0.716 -1.017,-0.802 -1.055,-0.861 -1.079,-0.896 -1.103,-0.931 -1.125,-0.959 -1.143,-0.982 -1.2,-1.067 -1.261,-1.1 -1.328,-1.075 c -0.042,0.014 -0.074,0.052 -0.095,0.11 -0.021,0.058 -0.028,0.125 -0.018,0.203 0.004,0.037 0.01,0.084 0.018,0.137 0.006,0.055 0.025,0.164 0.053,0.33 0.027,0.166 0.057,0.325 0.085,0.48 0.018,0.107 0.038,0.211 0.057,0.311 0.137,0.686 0.244,1.09 0.32,1.214 0.032,0.054 0.069,0.08 0.109,0.08 0.04,0 0.075,-0.022 0.104,-0.069 C -0.64,1.629 -0.63,1.49 -0.667,1.306 -0.705,1.12 -0.757,1.017 -0.824,0.993 -0.838,0.962 -0.849,0.924 -0.858,0.878 -0.926,0.539 -0.968,0.323 -0.987,0.23 -1.02,0.062 -1.049,-0.093 -1.072,-0.231 l 0.241,0.37 c 0.015,0.021 0.028,0.043 0.039,0.062 l 0.036,0.058 c 0.012,0.02 0.023,0.037 0.036,0.053 0.011,0.014 0.023,0.032 0.035,0.052 0.012,0.018 0.023,0.036 0.036,0.051 l 0.035,0.046 c 0.012,0.016 0.022,0.032 0.032,0.047 0.222,0.293 0.402,0.439 0.54,0.439 0.208,0 0.309,-0.305 0.305,-0.912 0,-0.077 0.001,-0.148 0.004,-0.215 0.002,-0.065 0.004,-0.129 0.006,-0.191 0.003,-0.061 0.007,-0.121 0.015,-0.178 0.007,-0.058 0.015,-0.112 0.024,-0.162 0.01,-0.051 0.022,-0.099 0.036,-0.144 0.042,-0.177 0.103,-0.32 0.181,-0.428 0.077,-0.108 0.181,-0.175 0.309,-0.203 0.127,-0.026 0.249,-0.04 0.366,-0.04 0.115,0 0.271,0.042 0.464,0.127 0.195,0.085 0.359,0.161 0.495,0.231 0.134,0.068 0.322,0.184 0.563,0.341 0.242,0.158 0.429,0.284 0.562,0.376 0.132,0.092 0.33,0.235 0.596,0.428 0.402,0.285 0.7,0.493 0.894,0.624 0.015,0.015 0.029,0.024 0.043,0.029 0.015,0.003 0.029,0.003 0.043,0 C 4.877,0.625 4.892,0.619 4.906,0.612 4.921,0.604 4.932,0.593 4.942,0.578 4.951,0.562 4.96,0.543 4.97,0.52 4.99,0.458 4.99,0.396 4.97,0.335 4.951,0.273 4.921,0.23 4.877,0.207 4.721,0.108 4.444,-0.092 4.047,-0.388 3.65,-0.685 3.298,-0.938 2.993,-1.151 2.687,-1.363 2.344,-1.557 1.963,-1.734 1.583,-1.912 1.259,-1.992 0.994,-1.977 0.672,-1.962 0.423,-1.794 0.245,-1.474 0.067,-1.154 -0.014,-0.664 0,0" /></g><g
           transform="translate(61.5927,56.3088)"
           id="g88"><path
             id="path90"
             style="fill:#656263;fill-opacity:1;fill-rule:nonzero;stroke:none"
             d="M 0,0 C 0,0.114 -0.005,0.207 -0.014,0.277 -0.024,0.346 -0.036,0.392 -0.05,0.415 -0.098,0.499 -0.221,0.404 -0.419,0.126 -0.508,0.003 -0.644,-0.205 -0.824,-0.497 -0.861,-0.559 -0.907,-0.632 -0.962,-0.716 -1.017,-0.802 -1.055,-0.861 -1.079,-0.896 -1.103,-0.931 -1.125,-0.959 -1.143,-0.982 -1.2,-1.067 -1.261,-1.1 -1.328,-1.075 c -0.042,0.014 -0.074,0.052 -0.095,0.11 -0.021,0.058 -0.028,0.125 -0.018,0.203 0.004,0.037 0.01,0.084 0.018,0.137 0.006,0.055 0.025,0.164 0.053,0.33 0.027,0.166 0.057,0.325 0.085,0.48 0.018,0.107 0.038,0.211 0.057,0.311 0.137,0.686 0.244,1.09 0.32,1.214 0.032,0.054 0.069,0.08 0.109,0.08 0.04,0 0.075,-0.022 0.104,-0.069 C -0.64,1.629 -0.63,1.49 -0.667,1.306 -0.705,1.12 -0.757,1.017 -0.824,0.993 -0.838,0.962 -0.849,0.924 -0.858,0.878 -0.926,0.539 -0.968,0.323 -0.987,0.23 -1.02,0.062 -1.049,-0.093 -1.072,-0.231 l 0.241,0.37 c 0.015,0.021 0.028,0.043 0.039,0.062 l 0.036,0.058 c 0.012,0.02 0.023,0.037 0.036,0.053 0.011,0.014 0.023,0.032 0.035,0.052 0.012,0.018 0.023,0.036 0.036,0.051 l 0.035,0.046 c 0.012,0.016 0.022,0.032 0.032,0.047 0.222,0.293 0.402,0.439 0.54,0.439 0.208,0 0.309,-0.305 0.305,-0.912 0,-0.077 0.001,-0.148 0.004,-0.215 0.002,-0.065 0.004,-0.129 0.006,-0.191 0.003,-0.061 0.007,-0.121 0.015,-0.178 0.007,-0.058 0.015,-0.112 0.024,-0.162 0.01,-0.051 0.022,-0.099 0.036,-0.144 0.042,-0.177 0.103,-0.32 0.181,-0.428 0.077,-0.108 0.181,-0.175 0.309,-0.203 0.127,-0.026 0.249,-0.04 0.366,-0.04 0.115,0 0.271,0.042 0.464,0.127 0.195,0.085 0.359,0.161 0.495,0.231 0.134,0.068 0.322,0.184 0.563,0.341 0.242,0.158 0.429,0.284 0.562,0.376 0.132,0.092 0.33,0.235 0.596,0.428 0.402,0.285 0.7,0.493 0.894,0.624 0.015,0.015 0.029,0.024 0.043,0.029 0.015,0.003 0.029,0.003 0.043,0 C 4.877,0.625 4.892,0.619 4.906,0.612 4.921,0.604 4.932,0.593 4.942,0.578 4.951,0.562 4.96,0.543 4.97,0.52 4.99,0.458 4.99,0.396 4.97,0.335 4.951,0.273 4.921,0.23 4.877,0.207 4.721,0.108 4.444,-0.092 4.047,-0.388 3.65,-0.685 3.298,-0.938 2.993,-1.151 2.687,-1.363 2.344,-1.557 1.963,-1.734 1.583,-1.912 1.259,-1.992 0.994,-1.977 0.672,-1.962 0.423,-1.794 0.245,-1.474 0.067,-1.154 -0.014,-0.664 0,0" /></g><g
           transform="translate(68.3808,60.7)"
           id="g92"><path
             id="path94"
             style="fill:#656263;fill-opacity:1;fill-rule:nonzero;stroke:none"
             d="M 0,0 C -0.175,-0.471 -0.402,-1.279 -0.682,-2.427 -0.355,-1.45 -0.129,-0.64 0,0 m -1.641,-4.068 c -0.184,-0.032 -0.35,-0.154 -0.497,-0.37 -0.147,-0.216 -0.254,-0.458 -0.322,-0.728 -0.069,-0.27 -0.101,-0.52 -0.097,-0.751 0.005,-0.077 0.011,-0.144 0.018,-0.202 0.007,-0.059 0.013,-0.098 0.018,-0.121 0.004,-0.024 0.01,-0.036 0.015,-0.036 h 0.013 c 0.119,0.055 0.313,0.34 0.583,0.857 0.269,0.515 0.435,0.884 0.496,1.108 -0.008,0.016 -0.017,0.027 -0.024,0.035 -0.007,0.007 -0.015,0.019 -0.021,0.035 -0.007,0.015 -0.015,0.028 -0.022,0.041 -0.007,0.01 -0.013,0.024 -0.017,0.039 -0.005,0.015 -0.011,0.027 -0.015,0.036 -0.014,0.046 -0.056,0.064 -0.128,0.057 m 1.904,3.907 C 0.225,-0.348 0.18,-0.545 0.127,-0.758 0.076,-0.97 0.017,-1.185 -0.046,-1.405 -0.11,-1.625 -0.178,-1.849 -0.249,-2.081 -0.32,-2.312 -0.394,-2.537 -0.469,-2.757 -0.544,-2.976 -0.622,-3.194 -0.7,-3.41 -0.778,-3.626 -0.855,-3.829 -0.931,-4.021 -1.03,-4.269 -1.1,-4.497 -1.14,-4.705 c -0.04,-0.207 -0.053,-0.377 -0.039,-0.507 0.014,-0.131 0.05,-0.227 0.106,-0.289 0.129,-0.131 0.34,-0.177 0.636,-0.139 0.296,0.039 0.63,0.13 1.001,0.273 0.371,0.142 0.751,0.312 1.136,0.514 0.386,0.199 0.734,0.396 1.044,0.588 0.31,0.193 0.553,0.355 0.728,0.486 0.024,0.023 0.049,0.035 0.074,0.035 0.026,0 0.049,-0.011 0.068,-0.029 0.019,-0.019 0.035,-0.044 0.05,-0.075 0.009,-0.039 0.012,-0.078 0.01,-0.117 C 3.672,-4.003 3.664,-4.038 3.649,-4.068 3.635,-4.1 3.614,-4.125 3.585,-4.149 3.264,-4.41 2.744,-4.747 2.027,-5.153 1.31,-5.563 0.663,-5.843 0.085,-5.998 -0.881,-6.26 -1.399,-6.041 -1.47,-5.339 -1.561,-5.517 -1.636,-5.659 -1.697,-5.767 -1.759,-5.875 -1.83,-5.998 -1.914,-6.137 -1.996,-6.276 -2.069,-6.38 -2.13,-6.454 c -0.062,-0.074 -0.127,-0.138 -0.196,-0.197 -0.069,-0.058 -0.133,-0.082 -0.195,-0.075 -0.061,0.008 -0.121,0.042 -0.177,0.103 -0.152,0.177 -0.19,0.556 -0.115,1.133 0.058,0.431 0.155,0.785 0.292,1.064 0.181,0.347 0.38,0.591 0.6,0.734 0.22,0.143 0.408,0.129 0.565,-0.041 0.004,-0.007 0.013,-0.017 0.024,-0.028 0.012,-0.012 0.02,-0.022 0.025,-0.029 0.038,0.169 0.09,0.407 0.157,0.716 0.042,0.2 0.086,0.395 0.131,0.583 0.044,0.189 0.091,0.378 0.138,0.566 0.047,0.19 0.094,0.372 0.139,0.55 0.045,0.177 0.093,0.35 0.142,0.52 0.05,0.169 0.099,0.329 0.145,0.48 0.048,0.148 0.096,0.292 0.146,0.427 0.05,0.135 0.099,0.256 0.145,0.363 0.043,0.101 0.084,0.184 0.125,0.25 C 0,0.729 0.045,0.78 0.092,0.814 0.14,0.849 0.187,0.854 0.233,0.833 0.38,0.762 0.39,0.431 0.263,-0.161" /></g><g
           transform="translate(68.3808,60.7)"
           id="g96"><path
             id="path98"
             style="fill:#656263;fill-opacity:1;fill-rule:nonzero;stroke:none"
             d="M 0,0 C -0.175,-0.471 -0.402,-1.279 -0.682,-2.427 -0.355,-1.45 -0.129,-0.64 0,0 m -1.641,-4.068 c -0.184,-0.032 -0.35,-0.154 -0.497,-0.37 -0.147,-0.216 -0.254,-0.458 -0.322,-0.728 -0.069,-0.27 -0.101,-0.52 -0.097,-0.751 0.005,-0.077 0.011,-0.144 0.018,-0.202 0.007,-0.059 0.013,-0.098 0.018,-0.121 0.004,-0.024 0.01,-0.036 0.015,-0.036 h 0.013 c 0.119,0.055 0.313,0.34 0.583,0.857 0.269,0.515 0.435,0.884 0.496,1.108 -0.008,0.016 -0.017,0.027 -0.024,0.035 -0.007,0.007 -0.015,0.019 -0.021,0.035 -0.007,0.015 -0.015,0.028 -0.022,0.041 -0.007,0.01 -0.013,0.024 -0.017,0.039 -0.005,0.015 -0.011,0.027 -0.015,0.036 -0.014,0.046 -0.056,0.064 -0.128,0.057 m 1.904,3.907 C 0.225,-0.348 0.18,-0.545 0.127,-0.758 0.076,-0.97 0.017,-1.185 -0.046,-1.405 -0.11,-1.625 -0.178,-1.849 -0.249,-2.081 -0.32,-2.312 -0.394,-2.537 -0.469,-2.757 -0.544,-2.976 -0.622,-3.194 -0.7,-3.41 -0.778,-3.626 -0.855,-3.829 -0.931,-4.021 -1.03,-4.269 -1.1,-4.497 -1.14,-4.705 c -0.04,-0.207 -0.053,-0.377 -0.039,-0.507 0.014,-0.131 0.05,-0.227 0.106,-0.289 0.129,-0.131 0.34,-0.177 0.636,-0.139 0.296,0.039 0.63,0.13 1.001,0.273 0.371,0.142 0.751,0.312 1.136,0.514 0.386,0.199 0.734,0.396 1.044,0.588 0.31,0.193 0.553,0.355 0.728,0.486 0.024,0.023 0.049,0.035 0.074,0.035 0.026,0 0.049,-0.011 0.068,-0.029 0.019,-0.019 0.035,-0.044 0.05,-0.075 0.009,-0.039 0.012,-0.078 0.01,-0.117 C 3.672,-4.003 3.664,-4.038 3.649,-4.068 3.635,-4.1 3.614,-4.125 3.585,-4.149 3.264,-4.41 2.744,-4.747 2.027,-5.153 1.31,-5.563 0.663,-5.843 0.085,-5.998 -0.881,-6.26 -1.399,-6.041 -1.47,-5.339 -1.561,-5.517 -1.636,-5.659 -1.697,-5.767 -1.759,-5.875 -1.83,-5.998 -1.914,-6.137 -1.996,-6.276 -2.069,-6.38 -2.13,-6.454 c -0.062,-0.074 -0.127,-0.138 -0.196,-0.197 -0.069,-0.058 -0.133,-0.082 -0.195,-0.075 -0.061,0.008 -0.121,0.042 -0.177,0.103 -0.152,0.177 -0.19,0.556 -0.115,1.133 0.058,0.431 0.155,0.785 0.292,1.064 0.181,0.347 0.38,0.591 0.6,0.734 0.22,0.143 0.408,0.129 0.565,-0.041 0.004,-0.007 0.013,-0.017 0.024,-0.028 0.012,-0.012 0.02,-0.022 0.025,-0.029 0.038,0.169 0.09,0.407 0.157,0.716 0.042,0.2 0.086,0.395 0.131,0.583 0.044,0.189 0.091,0.378 0.138,0.566 0.047,0.19 0.094,0.372 0.139,0.55 0.045,0.177 0.093,0.35 0.142,0.52 0.05,0.169 0.099,0.329 0.145,0.48 0.048,0.148 0.096,0.292 0.146,0.427 0.05,0.135 0.099,0.256 0.145,0.363 0.043,0.101 0.084,0.184 0.125,0.25 C 0,0.729 0.045,0.78 0.092,0.814 0.14,0.849 0.187,0.854 0.233,0.833 0.38,0.762 0.39,0.431 0.263,-0.161" /></g><g
           transform="translate(73.2231,54.4709)"
           id="g100"><path
             id="path102"
             style="fill:#656263;fill-opacity:1;fill-rule:nonzero;stroke:none"
             d="m 0,0 c -0.042,0.062 -0.082,0.127 -0.118,0.196 -0.035,0.07 -0.062,0.143 -0.081,0.22 -0.019,0.077 -0.036,0.16 -0.05,0.249 -0.014,0.089 -0.023,0.177 -0.028,0.266 -0.004,0.089 -0.007,0.178 -0.007,0.27 v 0.278 c 0.005,0.077 0.013,0.247 0.024,0.508 0.012,0.262 0.017,0.428 0.015,0.497 -0.003,0.07 -0.009,0.228 -0.018,0.474 -0.038,0.385 -0.145,0.644 -0.32,0.775 l -0.099,0.046 c 0.066,-0.1 0.121,-0.19 0.163,-0.266 C -0.491,3.451 -0.468,3.39 -0.451,3.327 -0.435,3.267 -0.426,3.208 -0.426,3.154 -0.426,3.101 -0.43,3.047 -0.44,2.992 -0.45,2.938 -0.467,2.887 -0.491,2.837 -0.514,2.788 -0.545,2.739 -0.583,2.692 -0.706,2.53 -0.828,2.394 -0.948,2.281 -1.069,2.17 -1.152,2.102 -1.2,2.073 -1.247,2.047 -1.289,2.03 -1.321,2.021 -1.354,2.007 -1.382,2.009 -1.406,2.027 c -0.024,0.02 -0.043,0.049 -0.057,0.088 -0.019,0.061 -0.019,0.122 0,0.184 0.02,0.062 0.049,0.108 0.093,0.139 l 0.006,0.012 c 0.081,0.038 0.206,0.142 0.373,0.311 0.168,0.171 0.259,0.281 0.274,0.336 0,0.023 -0.011,0.053 -0.032,0.093 -0.022,0.039 -0.062,0.103 -0.121,0.195 -0.06,0.093 -0.099,0.156 -0.118,0.186 -0.146,0.238 -0.175,0.428 -0.084,0.567 0.123,0.199 0.322,0.203 0.596,0.011 0.043,-0.024 0.083,-0.054 0.121,-0.093 0.085,-0.07 0.154,-0.168 0.209,-0.295 0.054,-0.127 0.095,-0.25 0.121,-0.369 C 0,3.272 0.019,3.113 0.028,2.918 0.038,2.721 0.041,2.567 0.039,2.456 0.036,2.344 0.029,2.174 0.018,1.947 0.005,1.719 0,1.568 0,1.491 -0.02,0.897 0.035,0.536 0.163,0.404 0.244,0.312 0.372,0.262 0.546,0.254 0.721,0.246 0.919,0.276 1.14,0.341 1.359,0.406 1.605,0.496 1.878,0.606 2.15,0.718 2.42,0.844 2.687,0.982 2.955,1.121 3.229,1.268 3.508,1.421 3.786,1.575 4.039,1.717 4.264,1.849 4.488,1.979 4.703,2.104 4.906,2.219 5.109,2.333 5.259,2.411 5.353,2.45 L 5.36,2.46 C 5.375,2.469 5.392,2.471 5.41,2.467 5.429,2.463 5.447,2.456 5.463,2.45 5.48,2.442 5.495,2.429 5.506,2.41 5.518,2.39 5.528,2.369 5.538,2.346 5.542,2.314 5.545,2.284 5.545,2.253 5.545,2.223 5.54,2.193 5.531,2.167 5.521,2.14 5.51,2.115 5.496,2.092 5.481,2.067 5.464,2.053 5.446,2.045 5.346,1.999 5.171,1.9 4.921,1.75 4.669,1.6 4.404,1.443 4.125,1.277 3.845,1.11 3.537,0.932 3.198,0.739 2.86,0.546 2.53,0.379 2.208,0.237 1.886,0.094 1.579,-0.023 1.285,-0.115 0.991,-0.208 0.732,-0.246 0.504,-0.232 0.277,-0.216 0.108,-0.139 0,0" /></g><g
           transform="translate(73.2231,54.4709)"
           id="g104"><path
             id="path106"
             style="fill:#656263;fill-opacity:1;fill-rule:nonzero;stroke:none"
             d="m 0,0 c -0.042,0.062 -0.082,0.127 -0.118,0.196 -0.035,0.07 -0.062,0.143 -0.081,0.22 -0.019,0.077 -0.036,0.16 -0.05,0.249 -0.014,0.089 -0.023,0.177 -0.028,0.266 -0.004,0.089 -0.007,0.178 -0.007,0.27 v 0.278 c 0.005,0.077 0.013,0.247 0.024,0.508 0.012,0.262 0.017,0.428 0.015,0.497 -0.003,0.07 -0.009,0.228 -0.018,0.474 -0.038,0.385 -0.145,0.644 -0.32,0.775 l -0.099,0.046 c 0.066,-0.1 0.121,-0.19 0.163,-0.266 C -0.491,3.451 -0.468,3.39 -0.451,3.327 -0.435,3.267 -0.426,3.208 -0.426,3.154 -0.426,3.101 -0.43,3.047 -0.44,2.992 -0.45,2.938 -0.467,2.887 -0.491,2.837 -0.514,2.788 -0.545,2.739 -0.583,2.692 -0.706,2.53 -0.828,2.394 -0.948,2.281 -1.069,2.17 -1.152,2.102 -1.2,2.073 -1.247,2.047 -1.289,2.03 -1.321,2.021 -1.354,2.007 -1.382,2.009 -1.406,2.027 c -0.024,0.02 -0.043,0.049 -0.057,0.088 -0.019,0.061 -0.019,0.122 0,0.184 0.02,0.062 0.049,0.108 0.093,0.139 l 0.006,0.012 c 0.081,0.038 0.206,0.142 0.373,0.311 0.168,0.171 0.259,0.281 0.274,0.336 0,0.023 -0.011,0.053 -0.032,0.093 -0.022,0.039 -0.062,0.103 -0.121,0.195 -0.06,0.093 -0.099,0.156 -0.118,0.186 -0.146,0.238 -0.175,0.428 -0.084,0.567 0.123,0.199 0.322,0.203 0.596,0.011 0.043,-0.024 0.083,-0.054 0.121,-0.093 0.085,-0.07 0.154,-0.168 0.209,-0.295 0.054,-0.127 0.095,-0.25 0.121,-0.369 C 0,3.272 0.019,3.113 0.028,2.918 0.038,2.721 0.041,2.567 0.039,2.456 0.036,2.344 0.029,2.174 0.018,1.947 0.005,1.719 0,1.568 0,1.491 -0.02,0.897 0.035,0.536 0.163,0.404 0.244,0.312 0.372,0.262 0.546,0.254 0.721,0.246 0.919,0.276 1.14,0.341 1.359,0.406 1.605,0.496 1.878,0.606 2.15,0.718 2.42,0.844 2.687,0.982 2.955,1.121 3.229,1.268 3.508,1.421 3.786,1.575 4.039,1.717 4.264,1.849 4.488,1.979 4.703,2.104 4.906,2.219 5.109,2.333 5.259,2.411 5.353,2.45 L 5.36,2.46 C 5.375,2.469 5.392,2.471 5.41,2.467 5.429,2.463 5.447,2.456 5.463,2.45 5.48,2.442 5.495,2.429 5.506,2.41 5.518,2.39 5.528,2.369 5.538,2.346 5.542,2.314 5.545,2.284 5.545,2.253 5.545,2.223 5.54,2.193 5.531,2.167 5.521,2.14 5.51,2.115 5.496,2.092 5.481,2.067 5.464,2.053 5.446,2.045 5.346,1.999 5.171,1.9 4.921,1.75 4.669,1.6 4.404,1.443 4.125,1.277 3.845,1.11 3.537,0.932 3.198,0.739 2.86,0.546 2.53,0.379 2.208,0.237 1.886,0.094 1.579,-0.023 1.285,-0.115 0.991,-0.208 0.732,-0.246 0.504,-0.232 0.277,-0.216 0.108,-0.139 0,0" /></g><g
           transform="translate(79.1518,56.3894)"
           id="g108"><path
             id="path110"
             style="fill:#656263;fill-opacity:1;fill-rule:nonzero;stroke:none"
             d="m 0,0 h -0.007 c -0.043,0.03 -0.066,0.086 -0.068,0.167 -0.003,0.081 0.004,0.148 0.018,0.202 0.009,0.085 0.009,0.143 0,0.174 C -0.076,0.55 -0.11,0.532 -0.16,0.486 -0.209,0.439 -0.276,0.358 -0.359,0.242 -0.442,0.127 -0.531,-0.012 -0.625,-0.173 c -0.099,-0.17 -0.183,-0.332 -0.249,-0.486 -0.066,-0.153 -0.109,-0.274 -0.13,-0.359 -0.022,-0.084 -0.03,-0.142 -0.025,-0.173 0.037,0 0.102,0.04 0.195,0.117 0.092,0.076 0.205,0.195 0.337,0.358 0.132,0.161 0.26,0.339 0.384,0.53 C -0.1,-0.17 -0.08,-0.141 -0.054,-0.1 -0.028,-0.057 -0.01,-0.023 0,0 M 0.255,0.346 C 0.303,0.394 0.343,0.409 0.376,0.394 0.462,0.346 0.468,0.169 0.398,-0.138 L 0.39,-0.196 c -0.037,-0.294 -0.029,-0.54 0.029,-0.74 0.085,-0.301 0.288,-0.488 0.608,-0.562 0.318,-0.072 0.687,-0.053 1.107,0.059 0.418,0.112 0.868,0.279 1.349,0.503 0.48,0.222 0.929,0.46 1.345,0.71 C 5.245,0.023 5.609,0.273 5.921,0.52 5.945,0.536 5.971,0.544 6,0.548 6.028,0.552 6.053,0.543 6.074,0.52 6.096,0.497 6.111,0.466 6.121,0.427 6.135,0.358 6.13,0.294 6.107,0.238 6.083,0.18 6.049,0.139 6.007,0.114 5.41,-0.316 4.726,-0.742 3.955,-1.162 3.183,-1.582 2.48,-1.846 1.846,-1.953 0.724,-2.146 0.127,-1.691 0.057,-0.589 c -0.091,-0.125 -0.182,-0.247 -0.278,-0.37 -0.464,-0.617 -0.795,-0.833 -0.994,-0.647 -0.023,0.016 -0.041,0.038 -0.056,0.069 -0.213,0.362 -0.024,0.996 0.568,1.906 0.08,0.124 0.15,0.225 0.209,0.306 0.059,0.082 0.118,0.151 0.174,0.209 0.057,0.057 0.109,0.095 0.156,0.116 0.048,0.019 0.094,0.022 0.139,0.011 C 0.02,1 0.063,0.966 0.106,0.912 0.167,0.851 0.211,0.769 0.237,0.665 0.264,0.56 0.27,0.454 0.255,0.346" /></g><g
           transform="translate(79.1518,56.3894)"
           id="g112"><path
             id="path114"
             style="fill:#656263;fill-opacity:1;fill-rule:nonzero;stroke:none"
             d="m 0,0 h -0.007 c -0.043,0.03 -0.066,0.086 -0.068,0.167 -0.003,0.081 0.004,0.148 0.018,0.202 0.009,0.085 0.009,0.143 0,0.174 C -0.076,0.55 -0.11,0.532 -0.16,0.486 -0.209,0.439 -0.276,0.358 -0.359,0.242 -0.442,0.127 -0.531,-0.012 -0.625,-0.173 c -0.099,-0.17 -0.183,-0.332 -0.249,-0.486 -0.066,-0.153 -0.109,-0.274 -0.13,-0.359 -0.022,-0.084 -0.03,-0.142 -0.025,-0.173 0.037,0 0.102,0.04 0.195,0.117 0.092,0.076 0.205,0.195 0.337,0.358 0.132,0.161 0.26,0.339 0.384,0.53 C -0.1,-0.17 -0.08,-0.141 -0.054,-0.1 -0.028,-0.057 -0.01,-0.023 0,0 M 0.255,0.346 C 0.303,0.394 0.343,0.409 0.376,0.394 0.462,0.346 0.468,0.169 0.398,-0.138 L 0.39,-0.196 c -0.037,-0.294 -0.029,-0.54 0.029,-0.74 0.085,-0.301 0.288,-0.488 0.608,-0.562 0.318,-0.072 0.687,-0.053 1.107,0.059 0.418,0.112 0.868,0.279 1.349,0.503 0.48,0.222 0.929,0.46 1.345,0.71 C 5.245,0.023 5.609,0.273 5.921,0.52 5.945,0.536 5.971,0.544 6,0.548 6.028,0.552 6.053,0.543 6.074,0.52 6.096,0.497 6.111,0.466 6.121,0.427 6.135,0.358 6.13,0.294 6.107,0.238 6.083,0.18 6.049,0.139 6.007,0.114 5.41,-0.316 4.726,-0.742 3.955,-1.162 3.183,-1.582 2.48,-1.846 1.846,-1.953 0.724,-2.146 0.127,-1.691 0.057,-0.589 c -0.091,-0.125 -0.182,-0.247 -0.278,-0.37 -0.464,-0.617 -0.795,-0.833 -0.994,-0.647 -0.023,0.016 -0.041,0.038 -0.056,0.069 -0.213,0.362 -0.024,0.996 0.568,1.906 0.08,0.124 0.15,0.225 0.209,0.306 0.059,0.082 0.118,0.151 0.174,0.209 0.057,0.057 0.109,0.095 0.156,0.116 0.048,0.019 0.094,0.022 0.139,0.011 C 0.02,1 0.063,0.966 0.106,0.912 0.167,0.851 0.211,0.769 0.237,0.665 0.264,0.56 0.27,0.454 0.255,0.346" /></g><g
           transform="translate(93.4672,62.0691)"
           id="g116"><path
             id="path118"
             style="fill:#656263;fill-opacity:1;fill-rule:nonzero;stroke:none"
             d="m 0,0 c -0.008,-0.088 0.033,-0.171 0.1,-0.208 0.073,-0.043 0.159,-0.022 0.214,0.048 0.04,0.051 0.105,0.102 0.142,0.114 0.015,-0.12 0.02,-0.519 -0.029,-1.679 -0.375,-0.029 -0.775,-0.062 -1.186,-0.095 0.361,1.18 0.627,2.035 0.807,2.592 C 0.037,0.526 0.02,0.255 0,0 M 2.234,-1.639 C 2.199,-1.609 2.155,-1.59 2.115,-1.596 1.792,-1.62 1.328,-1.656 0.79,-1.697 0.847,-0.16 0.807,0.116 0.764,0.183 0.674,0.33 0.562,0.368 0.485,0.373 0.453,0.376 0.422,0.374 0.39,0.366 0.475,1.644 0.378,1.755 0.325,1.817 0.286,1.86 0.207,1.896 0.147,1.881 0.046,1.86 -0.027,1.846 -1.157,-1.853 -5.08,-2.182 -5.234,-2.283 -5.285,-2.316 -5.306,-2.33 -5.334,-2.341 -5.373,-2.357 -5.5,-2.41 -5.71,-2.499 -5.74,-2.759 c -0.037,-0.342 0.261,-0.839 1.841,-2.158 0.077,-0.068 0.203,-0.044 0.258,0.055 0.053,0.095 0.033,0.22 -0.047,0.285 -1.594,1.332 -1.69,1.695 -1.693,1.757 0.01,0.01 0.042,0.029 0.132,0.069 0.048,0.019 0.102,0.043 0.128,0.061 0.142,0.063 1.538,0.21 3.832,0.403 -0.507,-1.673 -1.163,-3.871 -2.001,-6.714 -0.032,-0.108 0.015,-0.225 0.106,-0.265 0.02,-0.01 0.043,-0.014 0.065,-0.014 0.077,0 0.145,0.056 0.172,0.141 0.716,2.432 1.484,5.002 2.057,6.885 0.431,0.036 0.869,0.071 1.298,0.106 -0.094,-2.029 -0.281,-4.981 -0.414,-6.906 -0.007,-0.114 0.066,-0.216 0.167,-0.225 0.042,-0.003 0.086,0.01 0.121,0.04 0.042,0.035 0.069,0.091 0.074,0.152 0.209,3.051 0.349,5.394 0.416,6.967 0.476,0.037 0.937,0.073 1.365,0.104 0.099,0.008 0.175,0.107 0.169,0.222 -0.003,0.06 -0.029,0.116 -0.072,0.155" /></g><g
           transform="translate(93.4672,62.0691)"
           id="g120"><path
             id="path122"
             style="fill:#656263;fill-opacity:1;fill-rule:nonzero;stroke:none"
             d="m 0,0 c -0.008,-0.088 0.033,-0.171 0.1,-0.208 0.073,-0.043 0.159,-0.022 0.214,0.048 0.04,0.051 0.105,0.102 0.142,0.114 0.015,-0.12 0.02,-0.519 -0.029,-1.679 -0.375,-0.029 -0.775,-0.062 -1.186,-0.095 0.361,1.18 0.627,2.035 0.807,2.592 C 0.037,0.526 0.02,0.255 0,0 M 2.234,-1.639 C 2.199,-1.609 2.155,-1.59 2.115,-1.596 1.792,-1.62 1.328,-1.656 0.79,-1.697 0.847,-0.16 0.807,0.116 0.764,0.183 0.674,0.33 0.562,0.368 0.485,0.373 0.453,0.376 0.422,0.374 0.39,0.366 0.475,1.644 0.378,1.755 0.325,1.817 0.286,1.86 0.207,1.896 0.147,1.881 0.046,1.86 -0.027,1.846 -1.157,-1.853 -5.08,-2.182 -5.234,-2.283 -5.285,-2.316 -5.306,-2.33 -5.334,-2.341 -5.373,-2.357 -5.5,-2.41 -5.71,-2.499 -5.74,-2.759 c -0.037,-0.342 0.261,-0.839 1.841,-2.158 0.077,-0.068 0.203,-0.044 0.258,0.055 0.053,0.095 0.033,0.22 -0.047,0.285 -1.594,1.332 -1.69,1.695 -1.693,1.757 0.01,0.01 0.042,0.029 0.132,0.069 0.048,0.019 0.102,0.043 0.128,0.061 0.142,0.063 1.538,0.21 3.832,0.403 -0.507,-1.673 -1.163,-3.871 -2.001,-6.714 -0.032,-0.108 0.015,-0.225 0.106,-0.265 0.02,-0.01 0.043,-0.014 0.065,-0.014 0.077,0 0.145,0.056 0.172,0.141 0.716,2.432 1.484,5.002 2.057,6.885 0.431,0.036 0.869,0.071 1.298,0.106 -0.094,-2.029 -0.281,-4.981 -0.414,-6.906 -0.007,-0.114 0.066,-0.216 0.167,-0.225 0.042,-0.003 0.086,0.01 0.121,0.04 0.042,0.035 0.069,0.091 0.074,0.152 0.209,3.051 0.349,5.394 0.416,6.967 0.476,0.037 0.937,0.073 1.365,0.104 0.099,0.008 0.175,0.107 0.169,0.222 -0.003,0.06 -0.029,0.116 -0.072,0.155" /></g><g
           transform="translate(95.2821,55.9973)"
           id="g124"><path
             id="path126"
             style="fill:#656263;fill-opacity:1;fill-rule:nonzero;stroke:none"
             d="m 0,0 c -0.021,0.007 -0.038,0.02 -0.053,0.041 -0.014,0.021 -0.025,0.044 -0.029,0.072 -0.003,0.028 -0.004,0.054 -0.002,0.082 0.001,0.026 0.009,0.056 0.022,0.086 v 0.008 c 0.012,0.031 0.041,0.15 0.088,0.358 0.046,0.208 0.099,0.458 0.157,0.754 0.06,0.295 0.118,0.592 0.178,0.891 0.058,0.297 0.113,0.573 0.164,0.826 0.05,0.254 0.086,0.419 0.107,0.498 C 0.67,3.795 0.729,3.871 0.81,3.841 0.851,3.822 0.88,3.784 0.894,3.722 0.909,3.663 0.91,3.606 0.897,3.551 0.594,1.92 0.374,0.717 0.234,-0.053 0.227,-0.114 0.218,-0.171 0.208,-0.226 0.201,-0.28 0.193,-0.331 0.187,-0.378 0.181,-0.427 0.175,-0.474 0.171,-0.52 0.167,-0.564 0.163,-0.605 0.158,-0.641 c 0,-0.072 0.001,-0.135 0.004,-0.191 0.001,-0.053 0.007,-0.102 0.016,-0.143 0.012,-0.067 0.033,-0.122 0.063,-0.163 0.029,-0.042 0.072,-0.07 0.129,-0.082 0.057,-0.011 0.118,-0.017 0.183,-0.013 0.065,0.003 0.15,0.02 0.253,0.05 0.103,0.03 0.208,0.064 0.316,0.104 0.107,0.039 0.239,0.091 0.395,0.158 0.602,0.247 1.564,0.647 2.887,1.202 C 4.446,0.299 4.484,0.297 4.521,0.276 4.557,0.254 4.576,0.218 4.581,0.163 4.589,0.115 4.584,0.073 4.564,0.037 4.546,0 4.52,-0.02 4.486,-0.026 4.309,-0.099 4.034,-0.215 3.662,-0.375 3.289,-0.534 2.911,-0.696 2.528,-0.863 2.144,-1.028 1.868,-1.144 1.7,-1.209 1.658,-1.228 1.592,-1.258 1.504,-1.301 0.893,-1.56 0.485,-1.65 0.278,-1.572 -0.075,-1.439 -0.167,-0.916 0,0" /></g><g
           transform="translate(95.2821,55.9973)"
           id="g128"><path
             id="path130"
             style="fill:#656263;fill-opacity:1;fill-rule:nonzero;stroke:none"
             d="m 0,0 c -0.021,0.007 -0.038,0.02 -0.053,0.041 -0.014,0.021 -0.025,0.044 -0.029,0.072 -0.003,0.028 -0.004,0.054 -0.002,0.082 0.001,0.026 0.009,0.056 0.022,0.086 v 0.008 c 0.012,0.031 0.041,0.15 0.088,0.358 0.046,0.208 0.099,0.458 0.157,0.754 0.06,0.295 0.118,0.592 0.178,0.891 0.058,0.297 0.113,0.573 0.164,0.826 0.05,0.254 0.086,0.419 0.107,0.498 C 0.67,3.795 0.729,3.871 0.81,3.841 0.851,3.822 0.88,3.784 0.894,3.722 0.909,3.663 0.91,3.606 0.897,3.551 0.594,1.92 0.374,0.717 0.234,-0.053 0.227,-0.114 0.218,-0.171 0.208,-0.226 0.201,-0.28 0.193,-0.331 0.187,-0.378 0.181,-0.427 0.175,-0.474 0.171,-0.52 0.167,-0.564 0.163,-0.605 0.158,-0.641 c 0,-0.072 0.001,-0.135 0.004,-0.191 0.001,-0.053 0.007,-0.102 0.016,-0.143 0.012,-0.067 0.033,-0.122 0.063,-0.163 0.029,-0.042 0.072,-0.07 0.129,-0.082 0.057,-0.011 0.118,-0.017 0.183,-0.013 0.065,0.003 0.15,0.02 0.253,0.05 0.103,0.03 0.208,0.064 0.316,0.104 0.107,0.039 0.239,0.091 0.395,0.158 0.602,0.247 1.564,0.647 2.887,1.202 C 4.446,0.299 4.484,0.297 4.521,0.276 4.557,0.254 4.576,0.218 4.581,0.163 4.589,0.115 4.584,0.073 4.564,0.037 4.546,0 4.52,-0.02 4.486,-0.026 4.309,-0.099 4.034,-0.215 3.662,-0.375 3.289,-0.534 2.911,-0.696 2.528,-0.863 2.144,-1.028 1.868,-1.144 1.7,-1.209 1.658,-1.228 1.592,-1.258 1.504,-1.301 0.893,-1.56 0.485,-1.65 0.278,-1.572 -0.075,-1.439 -0.167,-0.916 0,0" /></g><g
           transform="translate(100.204,55.8625)"
           id="g132"><path
             id="path134"
             style="fill:#656263;fill-opacity:1;fill-rule:nonzero;stroke:none"
             d="m 0,0 h -0.007 c -0.037,0.023 -0.057,0.067 -0.059,0.13 -0.002,0.064 0.003,0.117 0.015,0.159 0.009,0.066 0.009,0.111 0,0.135 C -0.067,0.43 -0.098,0.416 -0.142,0.379 -0.186,0.343 -0.246,0.28 -0.319,0.188 -0.393,0.099 -0.472,-0.009 -0.556,-0.135 c -0.088,-0.134 -0.162,-0.26 -0.221,-0.381 -0.059,-0.12 -0.098,-0.214 -0.117,-0.28 -0.019,-0.066 -0.026,-0.111 -0.022,-0.135 0.033,0 0.092,0.031 0.174,0.091 0.082,0.059 0.182,0.152 0.3,0.28 0.118,0.126 0.232,0.265 0.34,0.415 0.014,0.012 0.031,0.035 0.055,0.067 C -0.024,-0.044 -0.009,-0.018 0,0 M 0.227,0.271 C 0.27,0.307 0.305,0.32 0.334,0.307 0.411,0.271 0.417,0.132 0.353,-0.108 L 0.347,-0.154 c -0.034,-0.229 -0.025,-0.422 0.026,-0.578 0.075,-0.235 0.256,-0.381 0.54,-0.439 0.285,-0.057 0.613,-0.042 0.985,0.046 0.373,0.087 0.774,0.218 1.201,0.393 0.427,0.174 0.827,0.36 1.196,0.555 0.372,0.196 0.696,0.39 0.973,0.583 0.021,0.013 0.044,0.019 0.07,0.022 C 5.363,0.432 5.385,0.424 5.404,0.406 5.424,0.389 5.437,0.365 5.446,0.333 5.458,0.28 5.454,0.23 5.433,0.186 5.411,0.14 5.382,0.108 5.344,0.089 4.814,-0.248 4.206,-0.58 3.519,-0.909 2.832,-1.237 2.207,-1.443 1.643,-1.527 c -0.999,-0.151 -1.53,0.205 -1.592,1.066 -0.08,-0.097 -0.162,-0.193 -0.247,-0.289 -0.412,-0.482 -0.708,-0.651 -0.885,-0.506 -0.02,0.012 -0.038,0.029 -0.049,0.054 -0.19,0.283 -0.021,0.779 0.505,1.491 0.071,0.096 0.133,0.176 0.186,0.239 0.052,0.064 0.104,0.118 0.155,0.163 0.051,0.046 0.097,0.075 0.139,0.091 0.041,0.014 0.083,0.017 0.123,0.009 C 0.018,0.782 0.058,0.756 0.095,0.713 0.149,0.665 0.188,0.601 0.211,0.52 0.234,0.437 0.24,0.355 0.227,0.271" /></g><g
           transform="translate(100.204,55.8625)"
           id="g136"><path
             id="path138"
             style="fill:#656263;fill-opacity:1;fill-rule:nonzero;stroke:none"
             d="m 0,0 h -0.007 c -0.037,0.023 -0.057,0.067 -0.059,0.13 -0.002,0.064 0.003,0.117 0.015,0.159 0.009,0.066 0.009,0.111 0,0.135 C -0.067,0.43 -0.098,0.416 -0.142,0.379 -0.186,0.343 -0.246,0.28 -0.319,0.188 -0.393,0.099 -0.472,-0.009 -0.556,-0.135 c -0.088,-0.134 -0.162,-0.26 -0.221,-0.381 -0.059,-0.12 -0.098,-0.214 -0.117,-0.28 -0.019,-0.066 -0.026,-0.111 -0.022,-0.135 0.033,0 0.092,0.031 0.174,0.091 0.082,0.059 0.182,0.152 0.3,0.28 0.118,0.126 0.232,0.265 0.34,0.415 0.014,0.012 0.031,0.035 0.055,0.067 C -0.024,-0.044 -0.009,-0.018 0,0 M 0.227,0.271 C 0.27,0.307 0.305,0.32 0.334,0.307 0.411,0.271 0.417,0.132 0.353,-0.108 L 0.347,-0.154 c -0.034,-0.229 -0.025,-0.422 0.026,-0.578 0.075,-0.235 0.256,-0.381 0.54,-0.439 0.285,-0.057 0.613,-0.042 0.985,0.046 0.373,0.087 0.774,0.218 1.201,0.393 0.427,0.174 0.827,0.36 1.196,0.555 0.372,0.196 0.696,0.39 0.973,0.583 0.021,0.013 0.044,0.019 0.07,0.022 C 5.363,0.432 5.385,0.424 5.404,0.406 5.424,0.389 5.437,0.365 5.446,0.333 5.458,0.28 5.454,0.23 5.433,0.186 5.411,0.14 5.382,0.108 5.344,0.089 4.814,-0.248 4.206,-0.58 3.519,-0.909 2.832,-1.237 2.207,-1.443 1.643,-1.527 c -0.999,-0.151 -1.53,0.205 -1.592,1.066 -0.08,-0.097 -0.162,-0.193 -0.247,-0.289 -0.412,-0.482 -0.708,-0.651 -0.885,-0.506 -0.02,0.012 -0.038,0.029 -0.049,0.054 -0.19,0.283 -0.021,0.779 0.505,1.491 0.071,0.096 0.133,0.176 0.186,0.239 0.052,0.064 0.104,0.118 0.155,0.163 0.051,0.046 0.097,0.075 0.139,0.091 0.041,0.014 0.083,0.017 0.123,0.009 C 0.018,0.782 0.058,0.756 0.095,0.713 0.149,0.665 0.188,0.601 0.211,0.52 0.234,0.437 0.24,0.355 0.227,0.271" /></g><g
           transform="translate(106.6982,54.3621)"
           id="g140"><path
             id="path142"
             style="fill:#656263;fill-opacity:1;fill-rule:nonzero;stroke:none"
             d="m 0,0 c -0.038,0.049 -0.073,0.1 -0.104,0.154 -0.032,0.054 -0.056,0.111 -0.073,0.172 -0.017,0.06 -0.031,0.125 -0.045,0.194 -0.011,0.07 -0.021,0.139 -0.025,0.209 -0.004,0.068 -0.005,0.139 -0.005,0.21 v 0.218 c 0.003,0.06 0.01,0.193 0.022,0.398 0.009,0.204 0.014,0.333 0.012,0.388 -0.003,0.054 -0.008,0.178 -0.015,0.37 -0.035,0.301 -0.129,0.503 -0.285,0.606 L -0.606,2.955 C -0.547,2.877 -0.499,2.807 -0.461,2.747 -0.437,2.699 -0.416,2.65 -0.401,2.602 -0.387,2.555 -0.378,2.509 -0.378,2.466 -0.378,2.425 -0.383,2.382 -0.392,2.34 -0.399,2.298 -0.415,2.258 -0.437,2.219 -0.458,2.18 -0.485,2.142 -0.518,2.105 -0.628,1.979 -0.737,1.873 -0.844,1.784 -0.951,1.698 -1.026,1.644 -1.068,1.622 -1.109,1.602 -1.146,1.587 -1.175,1.581 -1.204,1.57 -1.229,1.571 -1.25,1.586 c -0.021,0.016 -0.04,0.038 -0.051,0.068 -0.017,0.048 -0.017,0.096 0,0.144 0.016,0.049 0.044,0.084 0.081,0.109 l 0.007,0.009 c 0.071,0.031 0.182,0.111 0.331,0.243 0.15,0.134 0.231,0.22 0.243,0.263 0,0.018 -0.009,0.041 -0.028,0.072 -0.019,0.03 -0.054,0.082 -0.107,0.154 -0.052,0.073 -0.088,0.121 -0.104,0.145 -0.13,0.186 -0.155,0.334 -0.077,0.443 0.111,0.155 0.288,0.159 0.532,0.008 C -0.386,3.226 -0.35,3.203 -0.316,3.172 -0.24,3.117 -0.178,3.041 -0.13,2.941 -0.082,2.842 -0.045,2.745 -0.022,2.652 0.001,2.559 0.017,2.435 0.025,2.282 0.034,2.128 0.037,2.007 0.035,1.921 0.033,1.833 0.026,1.7 0.016,1.522 0.006,1.344 0,1.227 0,1.166 -0.017,0.701 0.032,0.419 0.145,0.316 0.217,0.245 0.33,0.205 0.486,0.199 0.642,0.192 0.818,0.216 1.014,0.267 c 0.195,0.051 0.415,0.12 0.657,0.207 0.242,0.088 0.481,0.187 0.72,0.294 0.237,0.108 0.481,0.223 0.73,0.343 0.248,0.121 0.472,0.232 0.672,0.334 0.2,0.102 0.391,0.201 0.572,0.29 0.181,0.09 0.314,0.151 0.398,0.181 L 4.77,1.924 C 4.782,1.931 4.796,1.933 4.813,1.929 4.83,1.926 4.847,1.921 4.861,1.916 4.875,1.91 4.888,1.899 4.899,1.884 4.909,1.869 4.919,1.852 4.927,1.835 4.931,1.81 4.933,1.786 4.933,1.762 4.933,1.738 4.929,1.716 4.921,1.694 4.912,1.673 4.902,1.654 4.89,1.636 4.877,1.617 4.862,1.605 4.845,1.6 4.756,1.563 4.601,1.486 4.378,1.369 4.154,1.251 3.919,1.128 3.67,0.999 3.422,0.868 3.147,0.729 2.846,0.578 2.545,0.427 2.25,0.297 1.965,0.186 1.678,0.074 1.404,-0.018 1.144,-0.089 0.882,-0.162 0.65,-0.192 0.448,-0.181 0.247,-0.168 0.096,-0.109 0,0" /></g><g
           transform="translate(106.6982,54.3621)"
           id="g144"><path
             id="path146"
             style="fill:#656263;fill-opacity:1;fill-rule:nonzero;stroke:none"
             d="m 0,0 c -0.038,0.049 -0.073,0.1 -0.104,0.154 -0.032,0.054 -0.056,0.111 -0.073,0.172 -0.017,0.06 -0.031,0.125 -0.045,0.194 -0.011,0.07 -0.021,0.139 -0.025,0.209 -0.004,0.068 -0.005,0.139 -0.005,0.21 v 0.218 c 0.003,0.06 0.01,0.193 0.022,0.398 0.009,0.204 0.014,0.333 0.012,0.388 -0.003,0.054 -0.008,0.178 -0.015,0.37 -0.035,0.301 -0.129,0.503 -0.285,0.606 L -0.606,2.955 C -0.547,2.877 -0.499,2.807 -0.461,2.747 -0.437,2.699 -0.416,2.65 -0.401,2.602 -0.387,2.555 -0.378,2.509 -0.378,2.466 -0.378,2.425 -0.383,2.382 -0.392,2.34 -0.399,2.298 -0.415,2.258 -0.437,2.219 -0.458,2.18 -0.485,2.142 -0.518,2.105 -0.628,1.979 -0.737,1.873 -0.844,1.784 -0.951,1.698 -1.026,1.644 -1.068,1.622 -1.109,1.602 -1.146,1.587 -1.175,1.581 -1.204,1.57 -1.229,1.571 -1.25,1.586 c -0.021,0.016 -0.04,0.038 -0.051,0.068 -0.017,0.048 -0.017,0.096 0,0.144 0.016,0.049 0.044,0.084 0.081,0.109 l 0.007,0.009 c 0.071,0.031 0.182,0.111 0.331,0.243 0.15,0.134 0.231,0.22 0.243,0.263 0,0.018 -0.009,0.041 -0.028,0.072 -0.019,0.03 -0.054,0.082 -0.107,0.154 -0.052,0.073 -0.088,0.121 -0.104,0.145 -0.13,0.186 -0.155,0.334 -0.077,0.443 0.111,0.155 0.288,0.159 0.532,0.008 C -0.386,3.226 -0.35,3.203 -0.316,3.172 -0.24,3.117 -0.178,3.041 -0.13,2.941 -0.082,2.842 -0.045,2.745 -0.022,2.652 0.001,2.559 0.017,2.435 0.025,2.282 0.034,2.128 0.037,2.007 0.035,1.921 0.033,1.833 0.026,1.7 0.016,1.522 0.006,1.344 0,1.227 0,1.166 -0.017,0.701 0.032,0.419 0.145,0.316 0.217,0.245 0.33,0.205 0.486,0.199 0.642,0.192 0.818,0.216 1.014,0.267 c 0.195,0.051 0.415,0.12 0.657,0.207 0.242,0.088 0.481,0.187 0.72,0.294 0.237,0.108 0.481,0.223 0.73,0.343 0.248,0.121 0.472,0.232 0.672,0.334 0.2,0.102 0.391,0.201 0.572,0.29 0.181,0.09 0.314,0.151 0.398,0.181 L 4.77,1.924 C 4.782,1.931 4.796,1.933 4.813,1.929 4.83,1.926 4.847,1.921 4.861,1.916 4.875,1.91 4.888,1.899 4.899,1.884 4.909,1.869 4.919,1.852 4.927,1.835 4.931,1.81 4.933,1.786 4.933,1.762 4.933,1.738 4.929,1.716 4.921,1.694 4.912,1.673 4.902,1.654 4.89,1.636 4.877,1.617 4.862,1.605 4.845,1.6 4.756,1.563 4.601,1.486 4.378,1.369 4.154,1.251 3.919,1.128 3.67,0.999 3.422,0.868 3.147,0.729 2.846,0.578 2.545,0.427 2.25,0.297 1.965,0.186 1.678,0.074 1.404,-0.018 1.144,-0.089 0.882,-0.162 0.65,-0.192 0.448,-0.181 0.247,-0.168 0.096,-0.109 0,0" /></g><g
           transform="translate(111.3979,54.3533)"
           id="g148"><path
             id="path150"
             style="fill:#656263;fill-opacity:1;fill-rule:nonzero;stroke:none"
             d="m 0,0 c -0.03,0.012 -0.06,0.027 -0.088,0.045 -0.122,0.084 -0.202,0.247 -0.237,0.487 -0.036,0.242 -0.02,0.48 0.047,0.715 0.013,0.043 0.026,0.085 0.038,0.127 0.084,0.235 0.189,0.436 0.313,0.605 C 0.197,2.147 0.318,2.253 0.436,2.294 0.474,2.307 0.511,2.312 0.55,2.309 0.588,2.305 0.622,2.294 0.654,2.273 0.686,2.251 0.713,2.219 0.736,2.173 0.76,2.128 0.775,2.075 0.784,2.015 0.792,1.979 0.796,1.933 0.796,1.879 0.792,1.705 0.771,1.516 0.733,1.314 0.695,1.112 0.642,1.016 0.575,1.021 c -0.059,0 -0.089,0.057 -0.092,0.172 -0.002,0.115 0.012,0.286 0.041,0.515 0.013,0.114 0.013,0.19 0,0.225 C 0.495,1.946 0.43,1.903 0.328,1.807 0.274,1.753 0.221,1.686 0.171,1.609 0.12,1.53 0.077,1.448 0.041,1.364 0.006,1.28 -0.025,1.193 -0.051,1.103 -0.109,0.867 -0.116,0.684 -0.069,0.551 -0.036,0.443 0.036,0.381 0.146,0.365 0.255,0.351 0.452,0.392 0.736,0.488 1.021,0.584 1.428,0.752 1.958,0.994 2.582,1.283 3.285,1.597 4.069,1.933 4.102,1.952 4.134,1.952 4.167,1.933 4.198,1.917 4.22,1.886 4.232,1.844 4.241,1.813 4.243,1.784 4.239,1.757 4.235,1.73 4.225,1.705 4.211,1.681 4.196,1.656 4.175,1.639 4.15,1.626 4.066,1.584 3.958,1.532 3.825,1.468 3.692,1.405 3.496,1.312 3.238,1.188 2.979,1.065 2.788,0.976 2.666,0.921 2.051,0.639 1.579,0.429 1.247,0.294 0.917,0.157 0.655,0.066 0.462,0.018 0.268,-0.03 0.113,-0.037 0,0" /></g><g
           transform="translate(111.3979,54.3533)"
           id="g152"><path
             id="path154"
             style="fill:#656263;fill-opacity:1;fill-rule:nonzero;stroke:none"
             d="m 0,0 c -0.03,0.012 -0.06,0.027 -0.088,0.045 -0.122,0.084 -0.202,0.247 -0.237,0.487 -0.036,0.242 -0.02,0.48 0.047,0.715 0.013,0.043 0.026,0.085 0.038,0.127 0.084,0.235 0.189,0.436 0.313,0.605 C 0.197,2.147 0.318,2.253 0.436,2.294 0.474,2.307 0.511,2.312 0.55,2.309 0.588,2.305 0.622,2.294 0.654,2.273 0.686,2.251 0.713,2.219 0.736,2.173 0.76,2.128 0.775,2.075 0.784,2.015 0.792,1.979 0.796,1.933 0.796,1.879 0.792,1.705 0.771,1.516 0.733,1.314 0.695,1.112 0.642,1.016 0.575,1.021 c -0.059,0 -0.089,0.057 -0.092,0.172 -0.002,0.115 0.012,0.286 0.041,0.515 0.013,0.114 0.013,0.19 0,0.225 C 0.495,1.946 0.43,1.903 0.328,1.807 0.274,1.753 0.221,1.686 0.171,1.609 0.12,1.53 0.077,1.448 0.041,1.364 0.006,1.28 -0.025,1.193 -0.051,1.103 -0.109,0.867 -0.116,0.684 -0.069,0.551 -0.036,0.443 0.036,0.381 0.146,0.365 0.255,0.351 0.452,0.392 0.736,0.488 1.021,0.584 1.428,0.752 1.958,0.994 2.582,1.283 3.285,1.597 4.069,1.933 4.102,1.952 4.134,1.952 4.167,1.933 4.198,1.917 4.22,1.886 4.232,1.844 4.241,1.813 4.243,1.784 4.239,1.757 4.235,1.73 4.225,1.705 4.211,1.681 4.196,1.656 4.175,1.639 4.15,1.626 4.066,1.584 3.958,1.532 3.825,1.468 3.692,1.405 3.496,1.312 3.238,1.188 2.979,1.065 2.788,0.976 2.666,0.921 2.051,0.639 1.579,0.429 1.247,0.294 0.917,0.157 0.655,0.066 0.462,0.018 0.268,-0.03 0.113,-0.037 0,0" /></g><g
           transform="translate(115.8954,55.9792)"
           id="g156"><path
             id="path158"
             style="fill:#656263;fill-opacity:1;fill-rule:nonzero;stroke:none"
             d="m 0,0 c -0.042,-0.06 -0.071,-0.114 -0.088,-0.162 -0.021,-0.067 -0.014,-0.128 0.022,-0.186 0.035,-0.056 0.093,-0.11 0.173,-0.157 0.022,0.03 0.043,0.066 0.064,0.108 0.02,0.042 0.044,0.09 0.069,0.144 0.042,0.102 0.074,0.193 0.095,0.271 C 0.356,0.096 0.365,0.149 0.36,0.172 0.356,0.196 0.354,0.214 0.354,0.226 0.341,0.232 0.321,0.236 0.294,0.236 0.267,0.236 0.225,0.214 0.167,0.172 0.11,0.13 0.055,0.073 0,0 m -0.341,-0.089 c -0.118,-0.176 -0.217,-0.359 -0.298,-0.552 -0.037,-0.096 -0.065,-0.183 -0.084,-0.258 -0.019,-0.075 -0.028,-0.131 -0.028,-0.167 0,-0.037 0.005,-0.059 0.018,-0.072 0.025,-0.018 0.056,-0.025 0.092,-0.018 0.036,0.006 0.078,0.019 0.126,0.04 0.049,0.021 0.097,0.047 0.145,0.077 0.049,0.031 0.096,0.064 0.142,0.1 0.047,0.036 0.087,0.072 0.12,0.107 -0.071,0.061 -0.127,0.131 -0.17,0.208 -0.043,0.08 -0.067,0.165 -0.076,0.254 -0.008,0.091 -0.004,0.183 0.013,0.281 m 0.53,0.785 C 0.328,0.696 0.436,0.657 0.511,0.579 0.567,0.525 0.603,0.456 0.623,0.372 0.641,0.287 0.647,0.203 0.638,0.119 0.629,0.034 0.61,-0.058 0.581,-0.157 0.552,-0.256 0.523,-0.342 0.496,-0.411 0.469,-0.48 0.438,-0.547 0.404,-0.614 0.753,-0.626 1.346,-0.526 2.183,-0.316 3.019,-0.105 3.693,0.103 4.207,0.307 4.237,0.32 4.264,0.322 4.29,0.312 4.314,0.303 4.336,0.289 4.353,0.267 4.369,0.246 4.382,0.221 4.39,0.19 4.398,0.149 4.397,0.106 4.387,0.063 4.376,0.021 4.355,-0.006 4.32,-0.017 3.798,-0.24 3.053,-0.473 2.085,-0.713 1.116,-0.955 0.487,-1.039 0.196,-0.967 c -0.383,-0.44 -0.703,-0.619 -0.961,-0.542 -0.016,0 -0.031,0.005 -0.047,0.014 -0.014,0.009 -0.028,0.016 -0.041,0.022 -0.101,0.073 -0.155,0.197 -0.161,0.37 -0.006,0.175 0.025,0.344 0.092,0.507 0.143,0.415 0.32,0.735 0.53,0.957 0.211,0.223 0.404,0.335 0.581,0.335" /></g><g
           transform="translate(115.8954,55.9792)"
           id="g160"><path
             id="path162"
             style="fill:#656263;fill-opacity:1;fill-rule:nonzero;stroke:none"
             d="m 0,0 c -0.042,-0.06 -0.071,-0.114 -0.088,-0.162 -0.021,-0.067 -0.014,-0.128 0.022,-0.186 0.035,-0.056 0.093,-0.11 0.173,-0.157 0.022,0.03 0.043,0.066 0.064,0.108 0.02,0.042 0.044,0.09 0.069,0.144 0.042,0.102 0.074,0.193 0.095,0.271 C 0.356,0.096 0.365,0.149 0.36,0.172 0.356,0.196 0.354,0.214 0.354,0.226 0.341,0.232 0.321,0.236 0.294,0.236 0.267,0.236 0.225,0.214 0.167,0.172 0.11,0.13 0.055,0.073 0,0 m -0.341,-0.089 c -0.118,-0.176 -0.217,-0.359 -0.298,-0.552 -0.037,-0.096 -0.065,-0.183 -0.084,-0.258 -0.019,-0.075 -0.028,-0.131 -0.028,-0.167 0,-0.037 0.005,-0.059 0.018,-0.072 0.025,-0.018 0.056,-0.025 0.092,-0.018 0.036,0.006 0.078,0.019 0.126,0.04 0.049,0.021 0.097,0.047 0.145,0.077 0.049,0.031 0.096,0.064 0.142,0.1 0.047,0.036 0.087,0.072 0.12,0.107 -0.071,0.061 -0.127,0.131 -0.17,0.208 -0.043,0.08 -0.067,0.165 -0.076,0.254 -0.008,0.091 -0.004,0.183 0.013,0.281 m 0.53,0.785 C 0.328,0.696 0.436,0.657 0.511,0.579 0.567,0.525 0.603,0.456 0.623,0.372 0.641,0.287 0.647,0.203 0.638,0.119 0.629,0.034 0.61,-0.058 0.581,-0.157 0.552,-0.256 0.523,-0.342 0.496,-0.411 0.469,-0.48 0.438,-0.547 0.404,-0.614 0.753,-0.626 1.346,-0.526 2.183,-0.316 3.019,-0.105 3.693,0.103 4.207,0.307 4.237,0.32 4.264,0.322 4.29,0.312 4.314,0.303 4.336,0.289 4.353,0.267 4.369,0.246 4.382,0.221 4.39,0.19 4.398,0.149 4.397,0.106 4.387,0.063 4.376,0.021 4.355,-0.006 4.32,-0.017 3.798,-0.24 3.053,-0.473 2.085,-0.713 1.116,-0.955 0.487,-1.039 0.196,-0.967 c -0.383,-0.44 -0.703,-0.619 -0.961,-0.542 -0.016,0 -0.031,0.005 -0.047,0.014 -0.014,0.009 -0.028,0.016 -0.041,0.022 -0.101,0.073 -0.155,0.197 -0.161,0.37 -0.006,0.175 0.025,0.344 0.092,0.507 0.143,0.415 0.32,0.735 0.53,0.957 0.211,0.223 0.404,0.335 0.581,0.335" /></g><g
           transform="translate(121.1444,55.7996)"
           id="g164"><path
             id="path166"
             style="fill:#656263;fill-opacity:1;fill-rule:nonzero;stroke:none"
             d="M 0,0 C 0,0.089 -0.004,0.162 -0.012,0.217 -0.021,0.271 -0.031,0.306 -0.043,0.325 -0.085,0.391 -0.195,0.316 -0.372,0.099 -0.452,0.002 -0.572,-0.16 -0.732,-0.389 -0.766,-0.437 -0.807,-0.495 -0.855,-0.561 -0.904,-0.627 -0.938,-0.673 -0.96,-0.701 -0.98,-0.729 -1,-0.75 -1.017,-0.768 c -0.05,-0.066 -0.106,-0.091 -0.164,-0.072 -0.038,0.01 -0.066,0.04 -0.086,0.085 -0.018,0.045 -0.024,0.097 -0.015,0.159 0.004,0.029 0.01,0.066 0.015,0.107 0.007,0.043 0.022,0.129 0.048,0.259 0.026,0.128 0.051,0.253 0.075,0.374 0.018,0.084 0.035,0.166 0.052,0.244 0.122,0.537 0.217,0.852 0.284,0.949 0.03,0.042 0.061,0.063 0.098,0.063 0.036,0 0.066,-0.018 0.091,-0.055 C -0.568,1.273 -0.56,1.165 -0.593,1.021 -0.627,0.875 -0.673,0.795 -0.732,0.776 -0.745,0.752 -0.756,0.722 -0.764,0.687 -0.823,0.421 -0.861,0.253 -0.877,0.18 -0.907,0.048 -0.932,-0.072 -0.954,-0.181 l 0.216,0.289 0.034,0.049 0.032,0.046 c 0.01,0.015 0.021,0.028 0.031,0.041 0.011,0.011 0.021,0.025 0.032,0.041 0.01,0.015 0.021,0.028 0.031,0.04 l 0.033,0.035 c 0.01,0.013 0.019,0.026 0.027,0.037 0.198,0.229 0.359,0.343 0.481,0.343 0.185,0 0.276,-0.238 0.271,-0.713 0,-0.061 10e-4,-0.116 0.003,-0.168 0.003,-0.05 0.005,-0.1 0.007,-0.149 0.002,-0.048 0.006,-0.095 0.012,-0.14 0.007,-0.044 0.014,-0.087 0.022,-0.126 0.009,-0.039 0.019,-0.077 0.032,-0.112 0.038,-0.14 0.091,-0.251 0.162,-0.335 0.069,-0.085 0.16,-0.137 0.274,-0.159 0.114,-0.021 0.222,-0.031 0.326,-0.031 0.102,0 0.24,0.033 0.413,0.098 0.172,0.067 0.319,0.127 0.439,0.182 0.12,0.054 0.288,0.143 0.503,0.267 0.215,0.123 0.381,0.221 0.498,0.293 0.118,0.073 0.295,0.184 0.531,0.335 0.357,0.223 0.623,0.385 0.796,0.488 0.013,0.012 0.025,0.019 0.038,0.022 0.012,0.003 0.025,0.003 0.038,0 C 4.34,0.489 4.354,0.484 4.366,0.479 4.378,0.472 4.389,0.463 4.397,0.451 4.406,0.439 4.414,0.424 4.422,0.406 4.438,0.358 4.438,0.31 4.422,0.261 4.406,0.213 4.378,0.18 4.34,0.162 4.201,0.084 3.955,-0.072 3.601,-0.303 3.248,-0.535 2.935,-0.734 2.663,-0.9 2.392,-1.066 2.086,-1.218 1.747,-1.356 1.408,-1.495 1.121,-1.558 0.885,-1.546 0.599,-1.534 0.376,-1.402 0.218,-1.152 0.061,-0.903 -0.012,-0.519 0,0" /></g><g
           transform="translate(121.1444,55.7996)"
           id="g168"><path
             id="path170"
             style="fill:#656263;fill-opacity:1;fill-rule:nonzero;stroke:none"
             d="M 0,0 C 0,0.089 -0.004,0.162 -0.012,0.217 -0.021,0.271 -0.031,0.306 -0.043,0.325 -0.085,0.391 -0.195,0.316 -0.372,0.099 -0.452,0.002 -0.572,-0.16 -0.732,-0.389 -0.766,-0.437 -0.807,-0.495 -0.855,-0.561 -0.904,-0.627 -0.938,-0.673 -0.96,-0.701 -0.98,-0.729 -1,-0.75 -1.017,-0.768 c -0.05,-0.066 -0.106,-0.091 -0.164,-0.072 -0.038,0.01 -0.066,0.04 -0.086,0.085 -0.018,0.045 -0.024,0.097 -0.015,0.159 0.004,0.029 0.01,0.066 0.015,0.107 0.007,0.043 0.022,0.129 0.048,0.259 0.026,0.128 0.051,0.253 0.075,0.374 0.018,0.084 0.035,0.166 0.052,0.244 0.122,0.537 0.217,0.852 0.284,0.949 0.03,0.042 0.061,0.063 0.098,0.063 0.036,0 0.066,-0.018 0.091,-0.055 C -0.568,1.273 -0.56,1.165 -0.593,1.021 -0.627,0.875 -0.673,0.795 -0.732,0.776 -0.745,0.752 -0.756,0.722 -0.764,0.687 -0.823,0.421 -0.861,0.253 -0.877,0.18 -0.907,0.048 -0.932,-0.072 -0.954,-0.181 l 0.216,0.289 0.034,0.049 0.032,0.046 c 0.01,0.015 0.021,0.028 0.031,0.041 0.011,0.011 0.021,0.025 0.032,0.041 0.01,0.015 0.021,0.028 0.031,0.04 l 0.033,0.035 c 0.01,0.013 0.019,0.026 0.027,0.037 0.198,0.229 0.359,0.343 0.481,0.343 0.185,0 0.276,-0.238 0.271,-0.713 0,-0.061 10e-4,-0.116 0.003,-0.168 0.003,-0.05 0.005,-0.1 0.007,-0.149 0.002,-0.048 0.006,-0.095 0.012,-0.14 0.007,-0.044 0.014,-0.087 0.022,-0.126 0.009,-0.039 0.019,-0.077 0.032,-0.112 0.038,-0.14 0.091,-0.251 0.162,-0.335 0.069,-0.085 0.16,-0.137 0.274,-0.159 0.114,-0.021 0.222,-0.031 0.326,-0.031 0.102,0 0.24,0.033 0.413,0.098 0.172,0.067 0.319,0.127 0.439,0.182 0.12,0.054 0.288,0.143 0.503,0.267 0.215,0.123 0.381,0.221 0.498,0.293 0.118,0.073 0.295,0.184 0.531,0.335 0.357,0.223 0.623,0.385 0.796,0.488 0.013,0.012 0.025,0.019 0.038,0.022 0.012,0.003 0.025,0.003 0.038,0 C 4.34,0.489 4.354,0.484 4.366,0.479 4.378,0.472 4.389,0.463 4.397,0.451 4.406,0.439 4.414,0.424 4.422,0.406 4.438,0.358 4.438,0.31 4.422,0.261 4.406,0.213 4.378,0.18 4.34,0.162 4.201,0.084 3.955,-0.072 3.601,-0.303 3.248,-0.535 2.935,-0.734 2.663,-0.9 2.392,-1.066 2.086,-1.218 1.747,-1.356 1.408,-1.495 1.121,-1.558 0.885,-1.546 0.599,-1.534 0.376,-1.402 0.218,-1.152 0.061,-0.903 -0.012,-0.519 0,0" /></g><g
           transform="translate(116.9691,59.5725)"
           id="g172"><path
             id="path174"
             style="fill:#656263;fill-opacity:1;fill-rule:nonzero;stroke:none"
             d="M 0,0 C 0.015,0.032 0.03,0.062 0.042,0.091 0.054,0.119 0.066,0.146 0.079,0.17 0.091,0.195 0.101,0.219 0.109,0.244 0.149,0.341 0.175,0.426 0.187,0.5 0.2,0.573 0.202,0.641 0.193,0.701 0.184,0.762 0.163,0.821 0.127,0.878 0.083,0.959 0.034,0.964 -0.019,0.891 -0.071,0.817 -0.146,0.671 -0.243,0.452 -0.247,0.443 -0.255,0.426 -0.267,0.401 -0.302,0.312 -0.33,0.246 -0.349,0.201 -0.367,0.156 -0.389,0.102 -0.415,0.037 -0.441,-0.029 -0.459,-0.084 -0.47,-0.128 c -0.009,-0.045 -0.014,-0.083 -0.014,-0.116 0,-0.074 0.011,-0.134 0.036,-0.183 C -0.36,-0.598 -0.209,-0.456 0,0" /></g><g
           transform="translate(116.9691,59.5725)"
           id="g176"><path
             id="path178"
             style="fill:#656263;fill-opacity:1;fill-rule:nonzero;stroke:none"
             d="M 0,0 C 0.015,0.032 0.03,0.062 0.042,0.091 0.054,0.119 0.066,0.146 0.079,0.17 0.091,0.195 0.101,0.219 0.109,0.244 0.149,0.341 0.175,0.426 0.187,0.5 0.2,0.573 0.202,0.641 0.193,0.701 0.184,0.762 0.163,0.821 0.127,0.878 0.083,0.959 0.034,0.964 -0.019,0.891 -0.071,0.817 -0.146,0.671 -0.243,0.452 -0.247,0.443 -0.255,0.426 -0.267,0.401 -0.302,0.312 -0.33,0.246 -0.349,0.201 -0.367,0.156 -0.389,0.102 -0.415,0.037 -0.441,-0.029 -0.459,-0.084 -0.47,-0.128 c -0.009,-0.045 -0.014,-0.083 -0.014,-0.116 0,-0.074 0.011,-0.134 0.036,-0.183 C -0.36,-0.598 -0.209,-0.456 0,0" /></g></g></g></g></svg>